<?xml version="1.0" encoding="UTF-8" standalone="no"?>
<svg width="627px" height="241px" viewBox="0 0 627 241" version="1.1" xmlns="http://www.w3.org/2000/svg" xmlns:xlink="http://www.w3.org/1999/xlink">
    <!-- Generator: Sketch 41 (35326) - http://www.bohemiancoding.com/sketch -->
    <title>diagram_distance_white</title>
    <desc>Created with Sketch.</desc>
    <defs>
        <linearGradient x1="2.67889888%" y1="50%" x2="137.808735%" y2="50%" id="linearGradient-1">
            <stop stop-color="#99BFDB" stop-opacity="0.5" offset="0%"></stop>
            <stop stop-color="#FFFFFF" stop-opacity="0" offset="66.5%"></stop>
        </linearGradient>
    </defs>
    <g id="Page-1" stroke="none" stroke-width="1" fill="none" fill-rule="evenodd">
        <g id="Desktop" transform="translate(-137.000000, -391.000000)">
            <g id="diagram_distance_white" transform="translate(137.000000, 391.000000)">
                <polygon id="Shape" fill="url(#linearGradient-1)" points="494.476 240.67 131.827 116.78 494.476 0.002"></polygon>
                <rect id="Rectangle-path" fill="#FFFFFF" x="609.744" y="0.002" width="17.248" height="240.668"></rect>
                <g id="Group" transform="translate(434.000000, 83.000000)" fill="#E5EFF6">
                    <path d="M14.819,29.233 C13.898,29.233 12.988,28.818 12.388,28.028 C11.369,26.683 11.631,24.768 12.975,23.747 C13.526,23.329 14.174,23.128 14.818,23.127 C15.741,23.127 16.652,23.543 17.253,24.334 C18.274,25.677 18.011,27.592 16.667,28.61 C16.114,29.03 15.464,29.233 14.819,29.233 M30.209,0.369 C30.009,0.369 29.812,0.371 29.61,0.376 C17.647,0.654 7.828,9.236 5.53,20.486 C5.372,21.256 4.682,23.817 4.532,24.478 C2.368,34.032 1.069,39.756 0.565,41.995 C0.519,42.151 0.455,42.323 0.46,42.532 C0.476,43.29 1.069,43.907 1.824,43.959 L1.972,43.959 C2.209,43.954 7.348,43.835 7.348,43.835 C7.348,43.835 8.682,52.943 9.015,54.894 C9.655,58.639 11.17,60.75 18.883,60.75 C19.233,60.75 19.596,60.746 19.971,60.737 C27.379,60.563 39.239,57.358 45.143,51.186 C50.226,45.874 55.684,38.198 55.375,24.969 C55.058,11.264 43.849,0.369 30.209,0.369" id="Shape"></path>
                    <path d="M48.853,157.67 L43.189,157.67 L48.853,157.67 M38.157,65.378 C34.704,65.378 31.442,65.675 28.557,66.744 C7.26,74.633 7.26,112.698 7.26,112.698 L7.26,120.261 L7.26,137.032 L7.26,157.669 L43.188,157.669 L45.384,150.86 L33.031,110.048 C32.599,108.625 33.405,107.121 34.83,106.69 C35.09,106.611 35.352,106.574 35.611,106.574 C36.767,106.574 37.838,107.325 38.189,108.488 L50.787,150.108 C50.945,150.633 50.94,151.194 50.771,151.716 L48.851,157.669 L57.603,157.669 L67.632,157.669 L71.857,157.669 C71.857,157.669 75.105,153.313 74.351,146.838 C72.991,135.174 72.218,128.873 71.433,123.056 C68.591,102.01 65.833,91.542 65.833,91.542 L65.83,91.54 C64.948,87.66 63.669,83.798 61.825,80.291 C56.619,70.396 49.542,65.378 38.157,65.378" id="Shape"></path>
                </g>
                <rect id="Rectangle-path" x="192.669" y="128.509" width="184.861" height="100.304"></rect>
                <g id="Group" transform="translate(231.503900, 123.313500)" font-size="24" font-family="ArialMT, Arial" fill="#FFFFFF" font-weight="normal">
                    <text id="1.5-metres">
                        <tspan x="0" y="22">1.5 metres</tspan>
                    </text>
                    <text id="5-feet">
                        <tspan x="23.273" y="50.8">5 feet</tspan>
                    </text>
                </g>
                <g id="Group" transform="translate(147.000000, 111.000000)">
                    <path d="M8.328,5.981 L10.484,5.981" id="Shape" stroke="#FFFFFF" stroke-width="2.1559"></path>
                    <path d="M14.81,5.981 L263.553,5.981" id="Shape" stroke="#FFFFFF" stroke-width="2.1559" stroke-dasharray="4.326"></path>
                    <path d="M265.716,5.981 L267.872,5.981" id="Shape" stroke="#FFFFFF" stroke-width="2.1559"></path>
                    <polygon id="Shape" fill="#FFFFFF" points="9.901 11.356 0.593 5.982 9.901 0.606"></polygon>
                    <polygon id="Shape" fill="#FFFFFF" points="266.299 11.356 275.606 5.982 266.299 0.606"></polygon>
                </g>
                <g id="Group" transform="translate(491.000000, 122.000000)">
                    <rect id="Rectangle-path" x="0.134" y="5.412" width="119.858" height="101.4"></rect>
                    <g transform="translate(21.361800, 0.216800)" font-size="24" font-family="ArialMT, Arial" fill="#FFFFFF" font-weight="normal">
                        <text id="50-cm">
                            <tspan x="6.32226562" y="22">50 cm</tspan>
                        </text>
                        <text id="1.5-feet">
                            <tspan x="0.779" y="50.8">1.5 feet</tspan>
                        </text>
                    </g>
                </g>
                <g id="Group" transform="translate(505.000000, 111.000000)">
                    <path d="M7.985,5.981 L10.141,5.981" id="Shape" stroke="#FFFFFF" stroke-width="2.1559"></path>
                    <path d="M14.364,5.981 L79.843,5.981" id="Shape" stroke="#FFFFFF" stroke-width="2.1559" stroke-dasharray="4.2244"></path>
                    <path d="M81.955,5.981 L84.11,5.981" id="Shape" stroke="#FFFFFF" stroke-width="2.1559"></path>
                    <polygon id="Shape" fill="#FFFFFF" points="9.558 11.356 0.249 5.982 9.558 0.606"></polygon>
                    <polygon id="Shape" fill="#FFFFFF" points="82.538 11.356 91.847 5.982 82.538 0.606"></polygon>
                </g>
                <g id="Group" transform="translate(0.000000, 83.000000)">
                    <path d="M99.402,62.138 C93.743,71.839 82.166,82.084 75.34,88.76 C56.564,77.832 45.46,70.894 45.46,70.894 C45.46,70.894 36.436,70.472 33.692,69.997 C22.266,68.023 23.646,68.72 17.152,72.326 C6.633,78.167 24.193,89.968 24.727,90.945 C29.334,99.375 57.932,117.055 62.168,122.458 C64.87,125.907 80.925,132.956 87.112,120.373 C99.766,94.644 103.148,77.943 114.386,64.168 C124.699,51.528 120.352,40.143 114.089,43.139 C107.891,46.102 103.309,52.569 99.402,62.138 Z" id="Shape" fill="#CCDFED"></path>
                    <path d="M53.409,29.325 C52.764,29.325 52.115,29.122 51.562,28.703 C50.219,27.684 49.956,25.77 50.977,24.427 C51.577,23.636 52.488,23.22 53.411,23.219 C54.055,23.219 54.703,23.422 55.255,23.841 C56.597,24.86 56.861,26.778 55.841,28.119 C55.241,28.91 54.33,29.325 53.409,29.325 M38.022,0.461 C24.381,0.461 13.17,11.356 12.853,25.064 C12.544,38.293 18.003,45.969 23.085,51.28 C28.989,57.453 40.849,60.657 48.256,60.83 C48.633,60.839 48.997,60.844 49.348,60.844 C57.058,60.844 58.572,58.733 59.213,54.989 C59.546,53.038 60.88,43.928 60.88,43.928 C60.88,43.928 66.02,44.049 66.256,44.054 L66.405,44.054 C67.16,44.002 67.755,43.384 67.77,42.627 C67.774,42.416 67.709,42.245 67.666,42.089 C67.16,39.85 65.862,34.127 63.697,24.572 C63.548,23.909 62.857,21.349 62.699,20.581 C60.4,9.33 50.582,0.747 38.619,0.468 C38.42,0.463 38.219,0.461 38.022,0.461" id="Shape" fill="#99BFDB"></path>
                    <path d="M130.4,26.015 L126.074,26.015 L126.074,20.581 C126.074,20.018 125.618,19.561 125.055,19.561 L113.832,19.561 C113.27,19.561 112.813,20.017 112.813,20.581 L112.813,47.052 C112.813,47.616 113.269,48.072 113.832,48.072 L125.055,48.072 C125.617,48.072 126.074,47.617 126.074,47.052 L126.074,41.62 L130.4,41.62 C130.962,41.62 131.419,41.165 131.419,40.601 L131.419,27.031 C131.419,26.469 130.962,26.015 130.4,26.015 Z" id="Shape" fill="#99BFDB"></path>
                    <g transform="translate(0.000000, 47.000000)" id="Shape" fill="#99BFDB">
                        <path d="M44.497,68.287 L60.441,79.564 C53.864,74.701 49.904,72.027 44.497,68.287 Z"></path>
                        <path d="M111.457,6.136 C102.118,18.359 86.638,41.629 79.036,51.75 C64.109,39.845 61.996,37.744 54.868,31.937 C45.427,24.243 42.046,18.84 31.395,18.84 C19.362,18.84 10.71,24.186 5.676,34.73 C2.117,42.187 0.387,52.138 0.387,65.156 C0.387,73.074 1.776,82.314 3.122,91.254 C3.705,95.136 6.106,110.671 6.106,110.671 L68.82,110.671 L68.82,92.095 L26.044,61.839 C24.829,60.978 24.539,59.298 25.398,58.082 C26.257,56.866 27.939,56.576 29.154,57.435 L44.496,68.289 C49.903,72.029 53.863,74.703 60.44,79.566 L62.058,80.712 C75.983,90.191 85.603,85.912 92.666,74.4 C113.991,39.644 120.916,24.96 126.462,15.61 C135.627,0.16 119.628,-4.559 111.457,6.136 Z"></path>
                        <path d="M60.445,79.567 C60.989,79.97 61.526,80.346 62.059,80.71 L60.441,79.564 C60.442,79.565 60.442,79.565 60.445,79.567 Z"></path>
                    </g>
                </g>
            </g>
        </g>
    </g>
</svg>