<?xml version="1.0" encoding="utf-8"?>
<!-- Generator: Adobe Illustrator 16.2.1, SVG Export Plug-In . SVG Version: 6.00 Build 0)  -->
<!DOCTYPE svg PUBLIC "-//W3C//DTD SVG 1.1//EN" "http://www.w3.org/Graphics/SVG/1.1/DTD/svg11.dtd">
<svg version="1.1" id="Layer_1" xmlns:sketch="http://www.bohemiancoding.com/sketch/ns"
	 xmlns="http://www.w3.org/2000/svg" xmlns:xlink="http://www.w3.org/1999/xlink" x="0px" y="0px" width="490px" height="245px"
	 viewBox="0 0 490 245" enable-background="new 0 0 490 245" xml:space="preserve">
<rect x="173" y="-44" display="none" fill="#351CEA" stroke="#000000" stroke-width="1.03" stroke-miterlimit="10" width="523" height="326"/>
<title>diagram_distance_white copy</title>
<desc>Created with Sketch.</desc>
<polygon opacity="0.25" fill="#FFFFFF" enable-background="new    " points="248.224,244 330.249,42 395.198,42 477.976,244 "/>
<g>
	<path fill="#FFFFFF" d="M426.807,115.563c-0.922,0-1.832-0.415-2.433-1.205c-1.02-1.345-0.758-3.26,0.586-4.281
		c0.554-0.418,1.199-0.619,1.845-0.62c0.924,0,1.834,0.416,2.436,1.207c1.021,1.343,0.758,3.258-0.586,4.276
		C428.102,115.36,427.451,115.563,426.807,115.563 M442.195,86.699c-0.199,0-0.396,0.002-0.598,0.007
		c-11.965,0.278-21.783,8.86-24.08,20.11c-0.158,0.77-0.851,3.331-0.998,3.992c-2.164,9.554-3.463,15.278-3.967,17.517
		c-0.047,0.155-0.111,0.327-0.105,0.536c0.016,0.759,0.609,1.375,1.363,1.428h0.147c0.236-0.005,5.375-0.124,5.375-0.124
		s1.334,9.106,1.668,11.06c0.642,3.746,2.154,5.855,9.867,5.855c0.353,0,0.713-0.004,1.088-0.014
		c7.408-0.174,19.271-3.379,25.173-9.551c5.084-5.312,10.541-12.988,10.231-26.218C467.045,97.594,455.836,86.699,442.195,86.699"/>
	<path fill="#FFFFFF" d="M460.84,244h-5.663H460.84 M450.145,151.708c-3.453,0-6.715,0.297-9.603,1.366
		c-21.297,7.889-21.297,45.953-21.297,45.953c0,3.242,0,7.296,0,7.562v16.771v20.637h35.929l2.196-6.809l-12.354-40.812
		c-0.433-1.423,0.375-2.927,1.799-3.357c0.26-0.08,0.521-0.115,0.781-0.115c1.155,0,2.227,0.75,2.578,1.912l12.598,41.621
		c0.158,0.524,0.154,1.086-0.016,1.607l-1.921,5.953h8.753h10.028h4.226c0,0,3.248-4.355,2.493-10.831
		c-1.358-11.664-2.133-17.965-2.918-23.782c-2.842-21.046-5.6-31.514-5.6-31.514l-0.004-0.002c-0.881-3.881-2.16-7.742-4.004-11.249
		C468.605,156.727,461.529,151.708,450.145,151.708"/>
</g>
<polyline fill="none" stroke="#2FAF22" stroke-width="6.5389" stroke-miterlimit="10" points="449.774,53.143 431.396,71.523 
	422.046,62.175 "/>
<polygon opacity="0.25" fill="#FFFFFF" enable-background="new    " points="3.55,244 85.576,42 150.525,42 233.303,244 "/>
<g>
	<path fill="#FFFFFF" d="M102.408,115.563c-0.922,0-1.832-0.415-2.432-1.205c-1.02-1.345-0.758-3.26,0.586-4.281
		c0.553-0.418,1.199-0.619,1.844-0.62c0.924,0,1.834,0.416,2.437,1.207c1.021,1.343,0.758,3.258-0.587,4.276
		C103.703,115.36,103.053,115.563,102.408,115.563 M117.797,86.699c-0.198,0-0.396,0.002-0.598,0.007
		c-11.965,0.278-21.783,8.86-24.08,20.11c-0.158,0.77-0.85,3.331-0.998,3.992c-2.164,9.554-3.463,15.278-3.967,17.517
		c-0.047,0.155-0.111,0.327-0.105,0.536c0.017,0.759,0.609,1.375,1.363,1.428h0.148c0.236-0.005,5.375-0.124,5.375-0.124
		s1.334,9.106,1.668,11.06c0.641,3.746,2.154,5.855,9.867,5.855c0.352,0,0.713-0.004,1.088-0.014
		c7.408-0.174,19.27-3.379,25.172-9.551c5.084-5.312,10.541-12.988,10.232-26.218C142.646,97.594,131.438,86.699,117.797,86.699"/>
	<path fill="#FFFFFF" d="M136.441,244h-5.664H136.441 M125.746,151.708c-3.453,0-6.715,0.297-9.602,1.366
		c-21.297,7.889-21.297,45.953-21.297,45.953c0,3.242,0,7.296,0,7.562v16.771v20.637h35.928l2.197-6.809l-12.354-40.812
		c-0.432-1.423,0.375-2.927,1.799-3.357c0.261-0.08,0.521-0.115,0.781-0.115c1.156,0,2.228,0.75,2.578,1.912l12.598,41.621
		c0.158,0.524,0.154,1.086-0.016,1.607l-1.92,5.953h8.752h10.029h4.225c0,0,3.248-4.355,2.494-10.831
		c-1.359-11.664-2.133-17.965-2.918-23.782c-2.842-21.046-5.601-31.514-5.601-31.514l-0.004-0.002
		c-0.881-3.881-2.16-7.742-4.004-11.249C144.207,156.727,137.131,151.708,125.746,151.708"/>
</g>
<g>
	
		<line fill="none" stroke="#AF1324" stroke-width="6.5389" stroke-miterlimit="10" x1="198.326" y1="50.991" x2="175.646" y2="73.675"/>
	
		<line fill="none" stroke="#AF1324" stroke-width="6.5389" stroke-miterlimit="10" x1="175.646" y1="50.991" x2="198.326" y2="73.675"/>
</g>
<polygon opacity="0.75" fill="#FFFFFF" enable-background="new    " points="150.525,42 120.551,14.31 120.551,0 119.051,0 
	117.051,0 115.551,0 115.551,14.31 85.576,42 "/>
<polygon opacity="0.75" fill="#FFFFFF" enable-background="new    " points="395.198,42 365.224,14.31 365.224,0 363.724,0 
	361.724,0 360.224,0 360.224,14.31 330.249,42 "/>
<g>
	<path fill="#FFFFFF" d="M354.247,45c1.236,3.493,4.561,6,8.478,6s7.239-2.507,8.477-6H354.247z"/>
</g>
<g>
	<path fill="#FFFFFF" d="M109.574,45c1.236,3.493,4.561,6,8.478,6s7.239-2.507,8.477-6H109.574z"/>
</g>
</svg>
