<?xml version="1.0" encoding="utf-8"?>
<!-- Generator: Adobe Illustrator 16.2.1, SVG Export Plug-In . SVG Version: 6.00 Build 0)  -->
<!DOCTYPE svg PUBLIC "-//W3C//DTD SVG 1.1//EN" "http://www.w3.org/Graphics/SVG/1.1/DTD/svg11.dtd">
<svg version="1.1" id="Layer_1" xmlns="http://www.w3.org/2000/svg" xmlns:xlink="http://www.w3.org/1999/xlink" x="0px" y="0px"
	 width="627px" height="241px" viewBox="0 0 627 241" enable-background="new 0 0 627 241" xml:space="preserve">
<title>diagram_distance_white</title>
<desc>Created with Sketch.</desc>
<g id="Page-1">
	<g id="Desktop" transform="translate(-137.000000, -391.000000)">
		<g id="diagram_distance_white" transform="translate(137.000000, 391.000000)">
			
				<linearGradient id="Shape_17_" gradientUnits="userSpaceOnUse" x1="-198.0186" y1="631.2529" x2="-196.6673" y2="631.2529" gradientTransform="matrix(362.649 0 0 -240.668 71952.7578 152042.8438)">
				<stop  offset="0" style="stop-color:#99BFDB;stop-opacity:0.5"/>
				<stop  offset="0.665" style="stop-color:#FFFFFF;stop-opacity:0"/>
			</linearGradient>
			<polygon id="Shape" fill="url(#Shape_17_)" points="494.476,240.67 131.827,116.78 494.476,0.002 			"/>
			<rect id="Rectangle-path" x="609.744" y="0.002" fill="#FFFFFF" width="17.248" height="240.668"/>
			<g id="Group" transform="translate(434.000000, 83.000000)">
				<path id="Shape_1_" fill="#E5EFF6" d="M14.819,29.233c-0.921,0-1.831-0.415-2.432-1.205c-1.019-1.345-0.757-3.26,0.587-4.281
					c0.552-0.418,1.199-0.619,1.844-0.62c0.923,0,1.834,0.416,2.435,1.207c1.021,1.343,0.758,3.258-0.586,4.276
					C16.114,29.03,15.464,29.233,14.819,29.233 M30.209,0.369c-0.2,0-0.396,0.002-0.599,0.007C17.646,0.654,7.828,9.236,5.53,20.486
					c-0.158,0.77-0.849,3.331-0.998,3.992c-2.164,9.554-3.463,15.278-3.967,17.517c-0.047,0.155-0.11,0.328-0.105,0.537
					c0.016,0.758,0.609,1.375,1.364,1.427h0.147c0.237-0.005,5.376-0.124,5.376-0.124s1.334,9.108,1.667,11.06
					c0.641,3.744,2.155,5.855,9.868,5.855c0.351,0,0.713-0.004,1.088-0.014c7.408-0.174,19.269-3.379,25.172-9.551
					c5.083-5.312,10.541-12.987,10.232-26.217C55.058,11.264,43.849,0.369,30.209,0.369"/>
				<path id="Shape_2_" fill="#E5EFF6" d="M48.854,157.67h-5.664H48.854 M38.157,65.378c-3.453,0-6.715,0.297-9.601,1.366
					C7.26,74.633,7.26,112.698,7.26,112.698v7.562v16.771v20.637h35.928l2.196-6.81l-12.353-40.812
					c-0.433-1.423,0.374-2.927,1.799-3.358c0.26-0.078,0.521-0.115,0.781-0.115c1.155,0,2.227,0.751,2.578,1.914l12.598,41.619
					c0.158,0.525,0.153,1.086-0.016,1.608l-1.921,5.953h8.753h10.028h4.226c0,0,3.248-4.356,2.493-10.831
					c-1.359-11.664-2.133-17.965-2.918-23.781c-2.842-21.047-5.6-31.515-5.6-31.515L65.83,91.54
					c-0.882-3.88-2.161-7.742-4.005-11.249C56.619,70.396,49.542,65.378,38.157,65.378"/>
			</g>
			<rect id="Rectangle-path_1_" x="192.669" y="128.509" fill="none" width="184.861" height="100.304"/>
			<g id="Group_1_" transform="translate(231.503900, 123.313500)">
				<text transform="matrix(1 0 0 1 0 22)" fill="#FFFFFF" font-family="'ArialMT'" font-size="24">1.5 metres</text>
				<text transform="matrix(1 0 0 1 23.2729 50.7998)" fill="#FFFFFF" font-family="'ArialMT'" font-size="24">5 feet</text>
			</g>
			<g id="Group_2_" transform="translate(147.000000, 111.000000)">
				<path id="Shape_3_" fill="none" stroke="#FFFFFF" stroke-width="2.1559" d="M8.328,5.981h2.156"/>
				<path id="Shape_4_" fill="none" stroke="#FFFFFF" stroke-width="2.1559" stroke-dasharray="4.326" d="M14.81,5.981h248.743"/>
				<path id="Shape_5_" fill="none" stroke="#FFFFFF" stroke-width="2.1559" d="M265.716,5.981h2.156"/>
				<polygon id="Shape_6_" fill="#FFFFFF" points="9.901,11.355 0.593,5.982 9.901,0.606 				"/>
				<polygon id="Shape_7_" fill="#FFFFFF" points="266.299,11.355 275.605,5.982 266.299,0.606 				"/>
			</g>
			<g id="Group_3_" transform="translate(491.000000, 122.000000)">
				<rect id="Rectangle-path_2_" x="0.134" y="5.412" fill="none" width="119.858" height="101.4"/>
				<g transform="translate(21.361800, 0.216800)">
					<text transform="matrix(1 0 0 1 6.3218 22)" fill="#FFFFFF" font-family="'ArialMT'" font-size="24">50 cm</text>
					<text transform="matrix(1 0 0 1 0.7788 50.7998)" fill="#FFFFFF" font-family="'ArialMT'" font-size="24">1.5 feet</text>
				</g>
			</g>
			<g id="Group_4_" transform="translate(505.000000, 111.000000)">
				<path id="Shape_8_" fill="none" stroke="#FFFFFF" stroke-width="2.1559" d="M7.985,5.981h2.155"/>
				<path id="Shape_9_" fill="none" stroke="#FFFFFF" stroke-width="2.1559" stroke-dasharray="4.2244" d="M14.364,5.981h65.479"/>
				<path id="Shape_10_" fill="none" stroke="#FFFFFF" stroke-width="2.1559" d="M81.955,5.981h2.155"/>
				<polygon id="Shape_11_" fill="#FFFFFF" points="9.558,11.355 0.249,5.982 9.558,0.606 				"/>
				<polygon id="Shape_12_" fill="#FFFFFF" points="82.538,11.355 91.847,5.982 82.538,0.606 				"/>
			</g>
			<g id="Group_5_" transform="translate(0.000000, 83.000000)">
				<path id="Shape_13_" fill="#CCDFED" d="M99.402,62.139c-5.659,9.7-17.236,19.945-24.062,26.621
					C56.564,77.832,45.46,70.895,45.46,70.895s-9.024-0.422-11.768-0.897c-11.426-1.974-10.046-1.277-16.54,2.329
					c-10.519,5.841,7.041,17.642,7.575,18.619c4.607,8.43,33.205,26.109,37.441,31.513c2.702,3.449,18.757,10.498,24.944-2.085
					c12.654-25.729,16.036-42.43,27.274-56.205c10.313-12.641,5.966-24.025-0.297-21.029
					C107.891,46.102,103.309,52.568,99.402,62.139z"/>
				<path id="Shape_14_" fill="#99BFDB" d="M53.409,29.325c-0.645,0-1.294-0.203-1.847-0.622c-1.343-1.019-1.606-2.933-0.585-4.276
					c0.6-0.791,1.511-1.207,2.434-1.208c0.644,0,1.292,0.203,1.844,0.622c1.342,1.019,1.606,2.937,0.586,4.278
					C55.241,28.91,54.33,29.325,53.409,29.325 M38.022,0.461c-13.641,0-24.852,10.895-25.169,24.603
					c-0.309,13.229,5.15,20.905,10.232,26.216c5.904,6.173,17.764,9.377,25.171,9.55c0.377,0.009,0.741,0.014,1.092,0.014
					c7.71,0,9.224-2.111,9.865-5.854c0.333-1.951,1.667-11.062,1.667-11.062s5.14,0.121,5.376,0.127h0.149
					c0.755-0.053,1.35-0.671,1.365-1.428c0.004-0.211-0.061-0.382-0.104-0.538c-0.506-2.239-1.804-7.962-3.969-17.517
					c-0.149-0.663-0.84-3.223-0.998-3.991C60.4,9.33,50.582,0.747,38.619,0.468C38.42,0.463,38.219,0.461,38.022,0.461"/>
				<path id="Shape_15_" fill="#99BFDB" d="M130.4,26.015h-4.326v-5.434c0-0.563-0.456-1.02-1.019-1.02h-11.223
					c-0.562,0-1.019,0.456-1.019,1.02v26.471c0,0.564,0.456,1.021,1.019,1.021h11.223c0.562,0,1.019-0.455,1.019-1.021V41.62h4.326
					c0.562,0,1.019-0.455,1.019-1.019v-13.57C131.419,26.469,130.962,26.015,130.4,26.015z"/>
				<g id="Shape_16_" transform="translate(0.000000, 47.000000)">
					<path fill="#99BFDB" d="M44.497,68.287l15.944,11.277C53.864,74.701,49.904,72.027,44.497,68.287z"/>
					<path fill="#99BFDB" d="M111.457,6.136c-9.339,12.224-24.819,35.493-32.421,45.614c-14.927-11.905-17.04-14.006-24.168-19.812
						C45.427,24.243,42.046,18.84,31.395,18.84c-12.033,0-20.685,5.346-25.719,15.891c-3.559,7.457-5.289,17.408-5.289,30.426
						c0,7.918,1.389,17.158,2.735,26.098c0.583,3.882,2.984,19.417,2.984,19.417H68.82V92.095L26.044,61.839
						c-1.215-0.86-1.505-2.541-0.646-3.757s2.541-1.506,3.756-0.646l15.342,10.854c5.407,3.74,9.367,6.414,15.944,11.277
						l1.618,1.146c13.925,9.479,23.545,5.2,30.608-6.312c21.325-34.756,28.25-49.44,33.796-58.791
						C135.627,0.16,119.628-4.559,111.457,6.136z"/>
					<path fill="#99BFDB" d="M60.445,79.566c0.544,0.403,1.081,0.779,1.614,1.144l-1.618-1.146
						C60.442,79.564,60.442,79.564,60.445,79.566z"/>
				</g>
			</g>
		</g>
	</g>
</g>
</svg>
