<svg id="Layer_1" data-name="Layer 1" xmlns="http://www.w3.org/2000/svg" xmlns:xlink="http://www.w3.org/1999/xlink" viewBox="0 0 627 241"><defs><style>.cls-1{fill:url(#linear-gradient);}.cls-2{fill:#fff;}.cls-3{fill:#e5eff6;}.cls-4,.cls-5,.cls-6{fill:none;stroke:#fff;stroke-width:2.16px;}.cls-5{stroke-dasharray:4.33;}.cls-6{stroke-dasharray:4.22;}.cls-7{fill:#ccdfed;}.cls-8{fill:#99bfdb;}</style><linearGradient id="linear-gradient" x1="-190.04" y1="-113.11" x2="-188.69" y2="-113.11" gradientTransform="translate(69059.57 27342.49) scale(362.65 240.67)" gradientUnits="userSpaceOnUse"><stop offset="0" stop-color="#99bfdb" stop-opacity="0.5"/><stop offset="0.67" stop-color="#fff" stop-opacity="0"/></linearGradient></defs><title>distance-diagram</title><g id="Page-1"><g id="Desktop"><g id="diagram_distance_white" data-name="diagram distance white"><polygon id="Shape" class="cls-1" points="494.48 240.67 131.83 116.78 494.48 0 494.48 240.67"/><rect id="Rectangle-path" class="cls-2" x="609.74" width="17.25" height="240.67"/><g id="Group"><path id="Shape-2" data-name="Shape" class="cls-3" d="M448.82,112.23a3.05,3.05,0,1,1,1.85-.62,3,3,0,0,1-1.85.62m15.39-28.86h-.6a25.18,25.18,0,0,0-24.08,20.11c-.16.77-.85,3.33-1,4-2.16,9.55-3.46,15.28-4,17.52a1.63,1.63,0,0,0-.11.54,1.46,1.46,0,0,0,1.36,1.43H436l5.38-.12s1.33,9.11,1.67,11.06c.64,3.74,2.15,5.85,9.87,5.85H454c7.41-.17,19.27-3.38,25.17-9.55,5.08-5.31,10.54-13,10.23-26.22a25.18,25.18,0,0,0-25.17-24.6"/><path id="Shape-3" data-name="Shape" class="cls-3" d="M482.85,240.67h0m-10.7-92.29a27.73,27.73,0,0,0-9.6,1.37c-21.3,7.89-21.3,46-21.3,46v45h35.93l2.2-6.81L467,193a2.69,2.69,0,0,1,5.16-1.56l12.6,41.62a2.7,2.7,0,0,1,0,1.61l-1.92,6h23a16.16,16.16,0,0,0,2.49-10.83c-1.36-11.66-2.13-18-2.92-23.78-2.84-21-5.6-31.51-5.6-31.51h0a46.27,46.27,0,0,0-4-11.25c-5.21-9.89-12.28-14.91-23.67-14.91"/></g><g id="Group-2" data-name="Group"><path id="Shape-4" data-name="Shape" class="cls-4" d="M155.33,117h2.16"/><path id="Shape-5" data-name="Shape" class="cls-5" d="M161.81,117H410.55"/><path id="Shape-6" data-name="Shape" class="cls-4" d="M412.72,117h2.16"/><polygon id="Shape-7" data-name="Shape" class="cls-2" points="156.9 122.36 147.59 116.98 156.9 111.61 156.9 122.36"/><polygon id="Shape-8" data-name="Shape" class="cls-2" points="413.3 122.36 422.61 116.98 413.3 111.61 413.3 122.36"/></g><g id="Group-3" data-name="Group"><path id="Shape-9" data-name="Shape" class="cls-4" d="M513,117h2.16"/><path id="Shape-10" data-name="Shape" class="cls-6" d="M519.36,117h65.48"/><path id="Shape-11" data-name="Shape" class="cls-4" d="M587,117h2.15"/><polygon id="Shape-12" data-name="Shape" class="cls-2" points="514.56 122.36 505.25 116.98 514.56 111.61 514.56 122.36"/><polygon id="Shape-13" data-name="Shape" class="cls-2" points="587.54 122.36 596.85 116.98 587.54 111.61 587.54 122.36"/></g><g id="Group-4" data-name="Group"><path id="Shape-14" data-name="Shape" class="cls-7" d="M99.4,145.14c-5.66,9.7-17.24,19.94-24.06,26.62-18.78-10.93-29.88-17.87-29.88-17.87s-9-.42-11.77-.9c-11.43-2-10-1.28-16.54,2.33-10.52,5.84,7,17.64,7.58,18.62,4.61,8.43,33.21,26.11,37.44,31.51,2.7,3.45,18.76,10.5,24.94-2.08,12.65-25.73,16-42.43,27.27-56.21,10.31-12.64,6-24-.3-21S103.31,135.57,99.4,145.14Z"/><path id="Shape-15" data-name="Shape" class="cls-8" d="M53.41,112.33a3.05,3.05,0,1,1,2.43-1.21,3,3,0,0,1-2.43,1.21M38,83.46a25.19,25.19,0,0,0-25.17,24.6C12.54,121.29,18,129,23.08,134.28c5.9,6.17,17.76,9.38,25.17,9.55h1.09c7.71,0,9.22-2.11,9.87-5.85.33-2,1.67-11.06,1.67-11.06l5.38.13h.15a1.47,1.47,0,0,0,1.36-1.43,1.77,1.77,0,0,0-.1-.54l-4-17.52c-.15-.66-.84-3.22-1-4A25.19,25.19,0,0,0,38.62,83.47H38"/><path id="Shape-16" data-name="Shape" class="cls-8" d="M130.4,109h-4.33v-5.43a1,1,0,0,0-1-1H113.83a1,1,0,0,0-1,1v26.47a1,1,0,0,0,1,1h11.22a1,1,0,0,0,1-1v-5.43h4.33a1,1,0,0,0,1-1V110A1,1,0,0,0,130.4,109Z"/><g id="Shape-17" data-name="Shape"><path class="cls-8" d="M44.5,198.29l15.94,11.28C53.86,204.7,49.9,202,44.5,198.29Z"/><path class="cls-8" d="M111.46,136.14c-9.34,12.22-24.82,35.49-32.42,45.61-14.93-11.9-17-14-24.17-19.81-9.44-7.69-12.82-13.1-23.47-13.1-12,0-20.68,5.35-25.72,15.89C2.12,172.19.39,182.14.39,195.16c0,7.92,1.39,17.16,2.73,26.1.58,3.88,3,19.42,3,19.42H68.82V222.1L26,191.84a2.7,2.7,0,0,1,3.11-4.4L44.5,198.29c5.41,3.74,9.37,6.41,15.94,11.28l1.62,1.15c13.92,9.48,23.55,5.2,30.61-6.31,21.32-34.76,28.25-49.44,33.8-58.79C135.63,130.16,119.63,125.44,111.46,136.14Z"/><path class="cls-8" d="M60.44,209.57c.54.4,1.08.78,1.61,1.14l-1.62-1.15Z"/></g></g></g></g></g><path class="cls-2" d="M257.17,132.58a3.66,3.66,0,0,0,.9-.09,1.11,1.11,0,0,0,.54-.29,1,1,0,0,0,.26-.51,3.67,3.67,0,0,0,.07-.76v-.18h1.34v11.32h-1.39v-8.31h-2.2v-1.18Z"/><path class="cls-2" d="M263.37,141.31a.88.88,0,0,1,.08-.36.94.94,0,0,1,.49-.49.85.85,0,0,1,.36-.08.88.88,0,0,1,.36.08,1,1,0,0,1,.29.2,1,1,0,0,1,.2.29.88.88,0,0,1,.08.36.86.86,0,0,1-.08.36,1,1,0,0,1-.2.29,1,1,0,0,1-.29.2.88.88,0,0,1-.36.08.85.85,0,0,1-.36-.08.95.95,0,0,1-.49-.49A.85.85,0,0,1,263.37,141.31Z"/><path class="cls-2" d="M267.61,136.32l.59-5.57h6.47V132h-5.35l-.34,3.22a3,3,0,0,1,1.1-.67,3.91,3.91,0,0,1,1.31-.22,3.7,3.7,0,0,1,1.49.3,3.62,3.62,0,0,1,1.18.82,3.73,3.73,0,0,1,.78,1.23,4.14,4.14,0,0,1,.28,1.53,4.51,4.51,0,0,1-.3,1.67,3.62,3.62,0,0,1-2.11,2.1,4.49,4.49,0,0,1-1.63.29,5.33,5.33,0,0,1-1.33-.16,3.82,3.82,0,0,1-1.13-.49,3.31,3.31,0,0,1-.86-.81,3,3,0,0,1-.51-1.13l1.38-.29a2.06,2.06,0,0,0,.29.64,2.2,2.2,0,0,0,.52.54,2.53,2.53,0,0,0,.73.37,2.93,2.93,0,0,0,.92.13,2.75,2.75,0,0,0,1.09-.21,2.3,2.3,0,0,0,.81-.57,2.54,2.54,0,0,0,.51-.87,3.29,3.29,0,0,0,.18-1.1,3.37,3.37,0,0,0-.18-1.12,2.52,2.52,0,0,0-.51-.87,2.28,2.28,0,0,0-.82-.57,2.81,2.81,0,0,0-1.1-.2,2.64,2.64,0,0,0-.6.07,3.17,3.17,0,0,0-.58.2,2.81,2.81,0,0,0-.52.31,2.18,2.18,0,0,0-.42.4Z"/><path class="cls-2" d="M286.48,142.07h-1.33V137a2.77,2.77,0,0,0-.13-.91,1.67,1.67,0,0,0-.35-.6,1.28,1.28,0,0,0-.51-.33,1.9,1.9,0,0,0-.63-.1,1.71,1.71,0,0,0-.65.13,1.54,1.54,0,0,0-.57.41,2.11,2.11,0,0,0-.4.7,3,3,0,0,0-.15,1v4.77h-1.33V134h1.33v.92a2.51,2.51,0,0,1,.94-.82,2.65,2.65,0,0,1,1.18-.26,2.5,2.5,0,0,1,.58.08,2.67,2.67,0,0,1,.62.23,2.27,2.27,0,0,1,.56.42,2,2,0,0,1,.41.62,2.65,2.65,0,0,1,.51-.63,2.71,2.71,0,0,1,1.27-.64,3.33,3.33,0,0,1,.68-.07,2.87,2.87,0,0,1,1.16.22,2.55,2.55,0,0,1,.85.59,2.49,2.49,0,0,1,.52.86,3,3,0,0,1,.18,1v5.53H289.9V137a2.67,2.67,0,0,0-.13-.91,1.62,1.62,0,0,0-.36-.6,1.37,1.37,0,0,0-.53-.33,1.91,1.91,0,0,0-.62-.1,1.71,1.71,0,0,0-.65.13,1.54,1.54,0,0,0-.57.41,2.1,2.1,0,0,0-.4.7,3,3,0,0,0-.15,1Z"/><path class="cls-2" d="M294.49,138.45a3.52,3.52,0,0,0,.23,1,2.6,2.6,0,0,0,.52.83,2.3,2.3,0,0,0,.77.54,2.46,2.46,0,0,0,1,.19,2.91,2.91,0,0,0,1.18-.22,4.27,4.27,0,0,0,.94-.56l.68,1a4.84,4.84,0,0,1-1.26.71,4.35,4.35,0,0,1-1.6.28,3.91,3.91,0,0,1-1.59-.31,3.5,3.5,0,0,1-1.21-.87,3.85,3.85,0,0,1-.77-1.33,5.07,5.07,0,0,1-.27-1.68,5.18,5.18,0,0,1,.26-1.69,4,4,0,0,1,.75-1.33,3.41,3.41,0,0,1,1.15-.87,3.5,3.5,0,0,1,1.49-.31,3.23,3.23,0,0,1,1.44.31,3.17,3.17,0,0,1,1.09.87,4,4,0,0,1,.69,1.33,5.59,5.59,0,0,1,.24,1.68v.42Zm2.22-3.44a2,2,0,0,0-.9.2,2.12,2.12,0,0,0-.68.53,2.56,2.56,0,0,0-.44.76,2.94,2.94,0,0,0-.19.89h4.27a3.1,3.1,0,0,0-.16-.9,2.45,2.45,0,0,0-.41-.76,2,2,0,0,0-.64-.53A1.82,1.82,0,0,0,296.71,135Z"/><path class="cls-2" d="M304.07,140.07a2.49,2.49,0,0,0,0,.38.66.66,0,0,0,.13.31.71.71,0,0,0,.31.21,1.6,1.6,0,0,0,.56.08h.23l.27,0,.28,0,.23,0,.14,1.16-.47.05-.46,0-.51,0a3.49,3.49,0,0,1-.86-.1,1.67,1.67,0,0,1-.65-.32,1.41,1.41,0,0,1-.41-.58,2.37,2.37,0,0,1-.14-.87v-5.19h-1.52V134h1.52v-2.64l1.33-.47V134h2.24v1.17h-2.24Z"/><path class="cls-2" d="M312.07,135.19h-.21a4,4,0,0,0-1,.12,2,2,0,0,0-.82.43,2.14,2.14,0,0,0-.57.84,3.71,3.71,0,0,0-.21,1.36v4.14h-1.33V134h1.33v1.28a2.07,2.07,0,0,1,.4-.62,2.33,2.33,0,0,1,.57-.45,2.64,2.64,0,0,1,.69-.26,3.25,3.25,0,0,1,.75-.09h.39Z"/><path class="cls-2" d="M314.33,138.45a3.52,3.52,0,0,0,.23,1,2.6,2.6,0,0,0,.52.83,2.3,2.3,0,0,0,.77.54,2.47,2.47,0,0,0,1,.19,2.91,2.91,0,0,0,1.18-.22,4.3,4.3,0,0,0,.94-.56l.68,1a4.84,4.84,0,0,1-1.26.71,4.35,4.35,0,0,1-1.6.28,3.91,3.91,0,0,1-1.59-.31A3.5,3.5,0,0,1,314,141a3.85,3.85,0,0,1-.77-1.33,5.07,5.07,0,0,1-.27-1.68,5.18,5.18,0,0,1,.26-1.69A4,4,0,0,1,314,135a3.41,3.41,0,0,1,1.15-.87,3.5,3.5,0,0,1,1.49-.31,3.24,3.24,0,0,1,1.44.31,3.18,3.18,0,0,1,1.09.87,4,4,0,0,1,.69,1.33,5.6,5.6,0,0,1,.24,1.68v.42Zm2.22-3.44a2,2,0,0,0-.9.2,2.12,2.12,0,0,0-.67.53,2.56,2.56,0,0,0-.44.76,3,3,0,0,0-.19.89h4.27a3.1,3.1,0,0,0-.16-.9,2.46,2.46,0,0,0-.41-.76,2,2,0,0,0-.64-.53A1.82,1.82,0,0,0,316.55,135Z"/><path class="cls-2" d="M327.3,139.84a2.06,2.06,0,0,1-.25,1,2.38,2.38,0,0,1-.66.75,3,3,0,0,1-.94.47,3.82,3.82,0,0,1-1.09.16,4.83,4.83,0,0,1-1.7-.3,4.47,4.47,0,0,1-1.45-.87l.73-.94c.13.11.27.23.44.35a3.91,3.91,0,0,0,.56.33,3.67,3.67,0,0,0,.66.25,2.81,2.81,0,0,0,.75.1,2.27,2.27,0,0,0,.62-.08,1.59,1.59,0,0,0,.52-.24,1.27,1.27,0,0,0,.35-.39,1,1,0,0,0,.13-.51,1,1,0,0,0-.14-.53,1.21,1.21,0,0,0-.37-.36,2.67,2.67,0,0,0-.55-.26l-.66-.22-.5-.17a8,8,0,0,1-.82-.32,2.87,2.87,0,0,1-.7-.45,1.87,1.87,0,0,1-.66-1.5,2.08,2.08,0,0,1,.71-1.55,2.75,2.75,0,0,1,.91-.53,3.82,3.82,0,0,1,1.3-.2,4.17,4.17,0,0,1,1.54.28,4.24,4.24,0,0,1,1.2.69l-.69,1a2.63,2.63,0,0,0-.41-.32,3.53,3.53,0,0,0-.5-.26A3.66,3.66,0,0,0,325,135a2.46,2.46,0,0,0-.58-.07,2.38,2.38,0,0,0-.73.1,1.39,1.39,0,0,0-.48.26,1,1,0,0,0-.26.36,1,1,0,0,0-.08.39.84.84,0,0,0,.12.46,1.13,1.13,0,0,0,.31.32,2.09,2.09,0,0,0,.44.23l.52.19.66.22q.47.16.87.34a3.52,3.52,0,0,1,.7.41,2.2,2.2,0,0,1,.59.7A2,2,0,0,1,327.3,139.84Z"/><path class="cls-2" d="M273.14,153.56l.59-5.57h6.47v1.22h-5.35l-.34,3.22a3,3,0,0,1,1.1-.67,3.91,3.91,0,0,1,1.31-.22,3.7,3.7,0,0,1,1.49.3,3.62,3.62,0,0,1,1.18.82,3.73,3.73,0,0,1,.78,1.23,4.14,4.14,0,0,1,.28,1.53,4.51,4.51,0,0,1-.3,1.67,3.62,3.62,0,0,1-2.11,2.1,4.49,4.49,0,0,1-1.63.29,5.33,5.33,0,0,1-1.33-.16,3.82,3.82,0,0,1-1.13-.49,3.31,3.31,0,0,1-.86-.81,3,3,0,0,1-.51-1.13l1.38-.29a2.06,2.06,0,0,0,.29.64,2.2,2.2,0,0,0,.52.54,2.53,2.53,0,0,0,.73.37,2.93,2.93,0,0,0,.92.13,2.75,2.75,0,0,0,1.09-.21,2.3,2.3,0,0,0,.81-.57,2.54,2.54,0,0,0,.51-.87,3.29,3.29,0,0,0,.18-1.1,3.37,3.37,0,0,0-.18-1.12,2.52,2.52,0,0,0-.51-.87,2.28,2.28,0,0,0-.82-.57,2.81,2.81,0,0,0-1.1-.2,2.64,2.64,0,0,0-.6.07,3.17,3.17,0,0,0-.58.2,2.81,2.81,0,0,0-.52.31,2.18,2.18,0,0,0-.42.4Z"/><path class="cls-2" d="M287.59,151.25h1.6v1.17h-1.6v6.9h-1.33v-6.9h-1.34v-1.17h1.34v-1.5a2.12,2.12,0,0,1,.17-.88,1.5,1.5,0,0,1,.46-.59,1.88,1.88,0,0,1,.7-.32,3.78,3.78,0,0,1,.89-.1,6.22,6.22,0,0,1,.81,0l.48.07-.1,1.14-.27,0-.32,0-.31,0h-.24a1.12,1.12,0,0,0-.47.08.75.75,0,0,0-.29.22.76.76,0,0,0-.15.31,1.64,1.64,0,0,0,0,.36Z"/><path class="cls-2" d="M291.63,155.7a3.52,3.52,0,0,0,.23,1,2.6,2.6,0,0,0,.52.83,2.3,2.3,0,0,0,.77.54,2.46,2.46,0,0,0,1,.19,2.91,2.91,0,0,0,1.18-.22,4.27,4.27,0,0,0,.94-.56l.68,1a4.84,4.84,0,0,1-1.26.71,4.35,4.35,0,0,1-1.6.28,3.91,3.91,0,0,1-1.59-.31,3.5,3.5,0,0,1-1.21-.87,3.85,3.85,0,0,1-.77-1.33,5.07,5.07,0,0,1-.27-1.68,5.18,5.18,0,0,1,.26-1.69,4,4,0,0,1,.75-1.33,3.41,3.41,0,0,1,1.15-.87,3.5,3.5,0,0,1,1.49-.31,3.23,3.23,0,0,1,1.44.31,3.17,3.17,0,0,1,1.09.87,4,4,0,0,1,.69,1.33,5.59,5.59,0,0,1,.24,1.68v.42Zm2.22-3.44a2,2,0,0,0-.9.2,2.12,2.12,0,0,0-.68.53,2.56,2.56,0,0,0-.44.76,2.94,2.94,0,0,0-.19.89h4.27a3.1,3.1,0,0,0-.16-.9,2.45,2.45,0,0,0-.41-.76,2,2,0,0,0-.64-.53A1.82,1.82,0,0,0,293.85,152.25Z"/><path class="cls-2" d="M300.1,155.7a3.52,3.52,0,0,0,.23,1,2.6,2.6,0,0,0,.52.83,2.3,2.3,0,0,0,.77.54,2.46,2.46,0,0,0,1,.19,2.91,2.91,0,0,0,1.18-.22,4.27,4.27,0,0,0,.94-.56l.68,1a4.84,4.84,0,0,1-1.26.71,4.35,4.35,0,0,1-1.6.28,3.91,3.91,0,0,1-1.59-.31,3.5,3.5,0,0,1-1.21-.87A3.85,3.85,0,0,1,299,157a5.07,5.07,0,0,1-.27-1.68,5.18,5.18,0,0,1,.26-1.69,4,4,0,0,1,.75-1.33,3.41,3.41,0,0,1,1.15-.87,3.5,3.5,0,0,1,1.49-.31,3.23,3.23,0,0,1,1.44.31,3.17,3.17,0,0,1,1.09.87,4,4,0,0,1,.69,1.33,5.59,5.59,0,0,1,.24,1.68v.42Zm2.22-3.44a2,2,0,0,0-.9.2,2.12,2.12,0,0,0-.68.53,2.56,2.56,0,0,0-.44.76,2.94,2.94,0,0,0-.19.89h4.27a3.1,3.1,0,0,0-.16-.9,2.45,2.45,0,0,0-.41-.76,2,2,0,0,0-.64-.53A1.82,1.82,0,0,0,302.32,152.25Z"/><path class="cls-2" d="M309.68,157.31a2.49,2.49,0,0,0,0,.38.66.66,0,0,0,.13.31.71.71,0,0,0,.31.21,1.6,1.6,0,0,0,.56.08h.23l.27,0,.28,0,.23,0,.14,1.16-.47.05-.46,0-.51,0a3.49,3.49,0,0,1-.86-.1,1.67,1.67,0,0,1-.65-.32,1.41,1.41,0,0,1-.41-.58,2.37,2.37,0,0,1-.14-.87v-5.19h-1.52v-1.17h1.52v-2.64l1.33-.47v3.1h2.24v1.17h-2.24Z"/><path class="cls-2" d="M531.77,136.32l.59-5.57h6.47V132h-5.34l-.34,3.22a3,3,0,0,1,1.1-.67,3.91,3.91,0,0,1,1.31-.22,3.7,3.7,0,0,1,1.49.3,3.63,3.63,0,0,1,1.18.82,3.72,3.72,0,0,1,.78,1.23,4.14,4.14,0,0,1,.28,1.53,4.51,4.51,0,0,1-.3,1.67,3.62,3.62,0,0,1-2.11,2.1,4.49,4.49,0,0,1-1.63.29,5.34,5.34,0,0,1-1.33-.16,3.83,3.83,0,0,1-1.13-.49,3.31,3.31,0,0,1-.86-.81,3,3,0,0,1-.51-1.13l1.38-.29a2.07,2.07,0,0,0,.29.64,2.2,2.2,0,0,0,.52.54,2.54,2.54,0,0,0,.73.37,2.93,2.93,0,0,0,.92.13,2.75,2.75,0,0,0,1.09-.21,2.29,2.29,0,0,0,.81-.57,2.55,2.55,0,0,0,.51-.87,3.29,3.29,0,0,0,.18-1.1,3.37,3.37,0,0,0-.18-1.12,2.52,2.52,0,0,0-.51-.87,2.27,2.27,0,0,0-.82-.57,2.81,2.81,0,0,0-1.1-.2,2.64,2.64,0,0,0-.6.07,3.16,3.16,0,0,0-.58.2,2.79,2.79,0,0,0-.53.31,2.16,2.16,0,0,0-.42.4Z"/><path class="cls-2" d="M545.21,130.61a3.56,3.56,0,0,1,1.31.23,3.38,3.38,0,0,1,1,.63,3.85,3.85,0,0,1,.77,1,6.15,6.15,0,0,1,.53,1.2,7.92,7.92,0,0,1,.3,1.36,11.16,11.16,0,0,1,0,2.9,7.92,7.92,0,0,1-.3,1.36,6,6,0,0,1-.53,1.19,4,4,0,0,1-.77,1,3.29,3.29,0,0,1-1,.63,3.92,3.92,0,0,1-2.62,0,3.28,3.28,0,0,1-1-.63,4,4,0,0,1-.77-1,5.94,5.94,0,0,1-.52-1.19,7.82,7.82,0,0,1-.3-1.36,11.16,11.16,0,0,1,0-2.9,7.83,7.83,0,0,1,.3-1.36,6.09,6.09,0,0,1,.52-1.2,3.86,3.86,0,0,1,.77-1,3.37,3.37,0,0,1,1-.63A3.55,3.55,0,0,1,545.21,130.61Zm0,10.4a1.94,1.94,0,0,0,1-.29,2.54,2.54,0,0,0,.82-.84,4.6,4.6,0,0,0,.54-1.35,7.62,7.62,0,0,0,.2-1.82v-.57a7.57,7.57,0,0,0-.2-1.82,4.69,4.69,0,0,0-.54-1.35,2.5,2.5,0,0,0-.82-.84,2,2,0,0,0-2.06,0,2.5,2.5,0,0,0-.82.84,4.69,4.69,0,0,0-.54,1.35,7.57,7.57,0,0,0-.2,1.82v.57a7.62,7.62,0,0,0,.2,1.82,4.6,4.6,0,0,0,.54,1.35,2.54,2.54,0,0,0,.82.84A1.93,1.93,0,0,0,545.21,141Z"/><path class="cls-2" d="M552.39,138.08a4.35,4.35,0,0,0,.15,1.15,3,3,0,0,0,.44,1,2.19,2.19,0,0,0,.73.65,2.09,2.09,0,0,0,1,.24,2.18,2.18,0,0,0,1.28-.39,2.27,2.27,0,0,0,.46-.43,3.18,3.18,0,0,0,.35-.53l1.11.63a3.23,3.23,0,0,1-1.25,1.37,3.61,3.61,0,0,1-.9.38,3.88,3.88,0,0,1-1,.13,3.61,3.61,0,0,1-1.52-.31A3.45,3.45,0,0,1,552,141a4,4,0,0,1-.76-1.32A5.06,5.06,0,0,1,551,138a5.12,5.12,0,0,1,.27-1.69A4,4,0,0,1,552,135a3.45,3.45,0,0,1,1.17-.87,3.61,3.61,0,0,1,1.52-.31,3.92,3.92,0,0,1,1,.13,3.65,3.65,0,0,1,.9.38,3.24,3.24,0,0,1,1.25,1.37l-1.11.63a3.23,3.23,0,0,0-.35-.53,2.3,2.3,0,0,0-.46-.43,2.18,2.18,0,0,0-1.28-.39,2.08,2.08,0,0,0-1,.24,2.17,2.17,0,0,0-.73.65,3,3,0,0,0-.44,1,4.34,4.34,0,0,0-.15,1.15Z"/><path class="cls-2" d="M565.82,142.07h-1.33V137a2.76,2.76,0,0,0-.13-.91,1.67,1.67,0,0,0-.35-.6,1.27,1.27,0,0,0-.51-.33,1.91,1.91,0,0,0-.63-.1,1.71,1.71,0,0,0-.65.13,1.55,1.55,0,0,0-.57.41,2.1,2.1,0,0,0-.4.7,3,3,0,0,0-.15,1v4.77h-1.33V134h1.33v.92a2.52,2.52,0,0,1,.94-.82,2.65,2.65,0,0,1,1.18-.26,2.5,2.5,0,0,1,.58.08,2.69,2.69,0,0,1,.62.23,2.28,2.28,0,0,1,.56.42,2,2,0,0,1,.41.62,2.66,2.66,0,0,1,.51-.63,2.7,2.7,0,0,1,1.27-.64,3.34,3.34,0,0,1,.68-.07,2.87,2.87,0,0,1,1.16.22,2.54,2.54,0,0,1,.85.59,2.5,2.5,0,0,1,.53.86,3,3,0,0,1,.18,1v5.53h-1.33V137a2.68,2.68,0,0,0-.13-.91,1.63,1.63,0,0,0-.36-.6,1.36,1.36,0,0,0-.53-.33,1.91,1.91,0,0,0-.62-.1,1.71,1.71,0,0,0-.65.13,1.53,1.53,0,0,0-.57.41,2.1,2.1,0,0,0-.4.7,3,3,0,0,0-.15,1Z"/><path class="cls-2" d="M526.82,149.83a3.66,3.66,0,0,0,.9-.09,1.12,1.12,0,0,0,.54-.29,1,1,0,0,0,.26-.51,3.67,3.67,0,0,0,.07-.76V148h1.34v11.32h-1.39V151h-2.2v-1.18Z"/><path class="cls-2" d="M533,158.56a.87.87,0,0,1,.08-.36.94.94,0,0,1,.49-.49.85.85,0,0,1,.36-.08.88.88,0,0,1,.36.08,1,1,0,0,1,.29.2,1,1,0,0,1,.2.29.88.88,0,0,1,.08.36.86.86,0,0,1-.08.36,1,1,0,0,1-.2.29,1,1,0,0,1-.29.2.88.88,0,0,1-.36.08.85.85,0,0,1-.36-.08.95.95,0,0,1-.49-.49A.84.84,0,0,1,533,158.56Z"/><path class="cls-2" d="M537.26,153.56l.59-5.57h6.47v1.22H539l-.34,3.22a3,3,0,0,1,1.1-.67,3.91,3.91,0,0,1,1.31-.22,3.7,3.7,0,0,1,1.49.3,3.63,3.63,0,0,1,1.18.82,3.72,3.72,0,0,1,.78,1.23,4.14,4.14,0,0,1,.28,1.53,4.51,4.51,0,0,1-.3,1.67,3.62,3.62,0,0,1-2.11,2.1,4.49,4.49,0,0,1-1.63.29,5.34,5.34,0,0,1-1.33-.16,3.83,3.83,0,0,1-1.13-.49,3.31,3.31,0,0,1-.86-.81,3,3,0,0,1-.51-1.13l1.38-.29a2.07,2.07,0,0,0,.29.64,2.2,2.2,0,0,0,.52.54,2.54,2.54,0,0,0,.73.37,2.93,2.93,0,0,0,.92.13,2.75,2.75,0,0,0,1.09-.21,2.29,2.29,0,0,0,.81-.57,2.55,2.55,0,0,0,.51-.87,3.29,3.29,0,0,0,.18-1.1,3.37,3.37,0,0,0-.18-1.12,2.52,2.52,0,0,0-.51-.87,2.27,2.27,0,0,0-.82-.57,2.81,2.81,0,0,0-1.1-.2,2.64,2.64,0,0,0-.6.07,3.16,3.16,0,0,0-.58.2,2.79,2.79,0,0,0-.53.31,2.16,2.16,0,0,0-.42.4Z"/><path class="cls-2" d="M551.71,151.25h1.6v1.17h-1.6v6.9h-1.33v-6.9H549v-1.17h1.34v-1.5a2.11,2.11,0,0,1,.17-.88,1.5,1.5,0,0,1,.46-.59,1.88,1.88,0,0,1,.7-.32,3.79,3.79,0,0,1,.89-.1,6.21,6.21,0,0,1,.81,0l.48.07-.1,1.14-.27,0-.32,0-.31,0h-.25a1.12,1.12,0,0,0-.47.08.74.74,0,0,0-.43.52,1.64,1.64,0,0,0,0,.36Z"/><path class="cls-2" d="M555.75,155.7a3.52,3.52,0,0,0,.23,1,2.6,2.6,0,0,0,.52.83,2.3,2.3,0,0,0,.77.54,2.47,2.47,0,0,0,1,.19,2.91,2.91,0,0,0,1.18-.22,4.3,4.3,0,0,0,.94-.56l.68,1a4.84,4.84,0,0,1-1.26.71,4.35,4.35,0,0,1-1.6.28,3.91,3.91,0,0,1-1.59-.31,3.5,3.5,0,0,1-1.21-.87,3.85,3.85,0,0,1-.77-1.33,5.07,5.07,0,0,1-.27-1.68,5.17,5.17,0,0,1,.26-1.69,4,4,0,0,1,.75-1.33,3.41,3.41,0,0,1,1.15-.87,3.5,3.5,0,0,1,1.49-.31,3.24,3.24,0,0,1,1.44.31,3.18,3.18,0,0,1,1.09.87,4,4,0,0,1,.69,1.33,5.6,5.6,0,0,1,.24,1.68v.42Zm2.22-3.44a2,2,0,0,0-.9.2,2.12,2.12,0,0,0-.67.53,2.56,2.56,0,0,0-.44.76,3,3,0,0,0-.19.89H560a3.1,3.1,0,0,0-.16-.9,2.46,2.46,0,0,0-.41-.76,2,2,0,0,0-.64-.53A1.82,1.82,0,0,0,558,152.25Z"/><path class="cls-2" d="M564.22,155.7a3.52,3.52,0,0,0,.23,1,2.6,2.6,0,0,0,.52.83,2.3,2.3,0,0,0,.77.54,2.47,2.47,0,0,0,1,.19,2.91,2.91,0,0,0,1.18-.22,4.3,4.3,0,0,0,.94-.56l.68,1a4.84,4.84,0,0,1-1.26.71,4.35,4.35,0,0,1-1.6.28,3.91,3.91,0,0,1-1.59-.31,3.5,3.5,0,0,1-1.21-.87,3.85,3.85,0,0,1-.77-1.33,5.07,5.07,0,0,1-.27-1.68,5.17,5.17,0,0,1,.26-1.69,4,4,0,0,1,.75-1.33,3.41,3.41,0,0,1,1.15-.87,3.5,3.5,0,0,1,1.49-.31,3.24,3.24,0,0,1,1.44.31,3.18,3.18,0,0,1,1.09.87,4,4,0,0,1,.69,1.33,5.6,5.6,0,0,1,.24,1.68v.42Zm2.22-3.44a2,2,0,0,0-.9.2,2.12,2.12,0,0,0-.67.53,2.56,2.56,0,0,0-.44.76,3,3,0,0,0-.19.89h4.27a3.1,3.1,0,0,0-.16-.9,2.46,2.46,0,0,0-.41-.76,2,2,0,0,0-.64-.53A1.82,1.82,0,0,0,566.44,152.25Z"/><path class="cls-2" d="M573.8,157.31a2.49,2.49,0,0,0,0,.38.66.66,0,0,0,.13.31.71.71,0,0,0,.31.21,1.6,1.6,0,0,0,.56.08h.22l.27,0,.28,0,.23,0,.14,1.16-.47.05-.46,0-.5,0a3.5,3.5,0,0,1-.87-.1,1.68,1.68,0,0,1-.65-.32,1.41,1.41,0,0,1-.41-.58,2.37,2.37,0,0,1-.14-.87v-5.19h-1.52v-1.17h1.52v-2.64l1.33-.47v3.1H576v1.17H573.8Z"/></svg>