<?xml version="1.0" encoding="utf-8"?>
<!-- Generator: Adobe Illustrator 16.2.1, SVG Export Plug-In . SVG Version: 6.00 Build 0)  -->
<!DOCTYPE svg PUBLIC "-//W3C//DTD SVG 1.1//EN" "http://www.w3.org/Graphics/SVG/1.1/DTD/svg11.dtd">
<svg version="1.1" id="Layer_1" xmlns:sketch="http://www.bohemiancoding.com/sketch/ns"
	 xmlns="http://www.w3.org/2000/svg" xmlns:xlink="http://www.w3.org/1999/xlink" x="0px" y="0px" width="385.702px" height="245px"
	 viewBox="251.298 0 385.702 245" enable-background="new 251.298 0 385.702 245" xml:space="preserve">
<rect x="728.853" y="-29.014" fill="#351CEA" stroke="#000000" stroke-miterlimit="10" width="493" height="326"/>
<title>diagram_distance_white copy</title>
<desc>Created with Sketch.</desc>
<rect x="619.752" fill="#FFFFFF" width="17.248" height="244"/>
<g>
	<defs>
		<polygon id="SVGID_1_" points="881.891,235 793.614,181.979 794.073,32.973 854.022,32.984 975.353,74.054 975.308,234.154 		"/>
	</defs>
	<clipPath id="SVGID_2_">
		<use xlink:href="#SVGID_1_"  overflow="visible"/>
	</clipPath>
	<rect x="788.614" y="27.973" opacity="0.2401" clip-path="url(#SVGID_2_)" fill="#FFFFFF" width="390.656" height="263.871"/>
</g>
<polygon opacity="0.25" fill="#FFFFFF" points="289.333,244 401.358,42 466.308,42 579.085,244 "/>
<polygon opacity="0.75" fill="#FFFFFF" points="466.308,42 434.833,12.924 434.833,0 432.833,0 432.833,12.924 401.358,42 "/>
<g>
	<path fill="#FFFFFF" d="M503.916,115.563c-0.922,0-1.832-0.415-2.432-1.205c-1.02-1.345-0.758-3.26,0.586-4.281
		c0.553-0.418,1.199-0.619,1.844-0.62c0.924,0,1.834,0.416,2.436,1.207c1.021,1.343,0.758,3.258-0.586,4.276
		C505.211,115.36,504.561,115.563,503.916,115.563 M519.305,86.699c-0.199,0-0.396,0.002-0.598,0.007
		c-11.965,0.278-21.783,8.86-24.08,20.11c-0.158,0.77-0.85,3.331-0.998,3.992c-2.164,9.554-3.463,15.278-3.967,17.517
		c-0.047,0.156-0.111,0.328-0.105,0.537c0.016,0.758,0.609,1.375,1.363,1.427h0.148c0.236-0.005,5.375-0.124,5.375-0.124
		s1.334,9.107,1.668,11.059c0.641,3.746,2.154,5.856,9.867,5.856c0.352,0,0.713-0.004,1.088-0.013
		c7.408-0.174,19.27-3.379,25.172-9.551c5.084-5.312,10.541-12.988,10.232-26.218C544.154,97.594,532.945,86.699,519.305,86.699"/>
	<path fill="#FFFFFF" d="M537.949,244h-5.664H537.949 M527.254,151.708c-3.453,0-6.715,0.297-9.602,1.366
		c-21.297,7.889-21.297,45.954-21.297,45.954c0,3.242,0,7.295,0,7.562v16.771v20.637h35.928l2.197-6.809l-12.354-40.812
		c-0.432-1.423,0.375-2.927,1.799-3.357c0.26-0.08,0.521-0.116,0.781-0.116c1.156,0,2.227,0.751,2.578,1.913l12.598,41.621
		c0.158,0.524,0.154,1.086-0.016,1.607l-1.92,5.953h8.752h10.029h4.225c0,0,3.248-4.355,2.494-10.831
		c-1.359-11.664-2.133-17.965-2.918-23.782c-2.842-21.046-5.6-31.514-5.6-31.514l-0.004-0.002c-0.881-3.88-2.16-7.742-4.004-11.249
		C545.715,156.726,538.639,151.708,527.254,151.708"/>
</g>
<g>
	<path fill="#FFFFFF" d="M412.19,115.563c-0.922,0-1.832-0.415-2.432-1.205c-1.02-1.345-0.758-3.26,0.586-4.281
		c0.553-0.418,1.199-0.619,1.844-0.62c0.924,0,1.834,0.416,2.436,1.207c1.021,1.343,0.758,3.258-0.586,4.276
		C413.485,115.36,412.835,115.563,412.19,115.563 M427.579,86.699c-0.199,0-0.396,0.002-0.598,0.007
		c-11.965,0.278-21.783,8.86-24.08,20.11c-0.158,0.77-0.85,3.331-0.998,3.992c-2.164,9.554-3.463,15.278-3.967,17.517
		c-0.047,0.156-0.111,0.328-0.105,0.537c0.016,0.758,0.609,1.375,1.363,1.427h0.148c0.236-0.005,5.375-0.124,5.375-0.124
		s1.334,9.107,1.668,11.059c0.641,3.746,2.154,5.856,9.867,5.856c0.352,0,0.713-0.004,1.088-0.013
		c7.408-0.174,19.27-3.379,25.172-9.551c5.084-5.312,10.541-12.988,10.232-26.218C452.429,97.594,441.22,86.699,427.579,86.699"/>
	<path fill="#FFFFFF" d="M446.224,244h-5.664H446.224 M435.528,151.708c-3.453,0-6.715,0.297-9.602,1.366
		c-21.297,7.889-21.297,45.954-21.297,45.954c0,3.242,0,7.295,0,7.562v16.771v20.637h35.928l2.197-6.809l-12.354-40.812
		c-0.432-1.423,0.375-2.927,1.799-3.357c0.26-0.08,0.521-0.116,0.781-0.116c1.156,0,2.227,0.751,2.578,1.913l12.598,41.621
		c0.158,0.524,0.154,1.086-0.016,1.607l-1.92,5.953h8.752h10.029h4.225c0,0,3.248-4.355,2.494-10.831
		c-1.359-11.664-2.133-17.965-2.918-23.782c-2.842-21.046-5.6-31.514-5.6-31.514l-0.004-0.002c-0.881-3.88-2.16-7.742-4.004-11.249
		C453.989,156.726,446.913,151.708,435.528,151.708"/>
</g>
<g>
	
		<line fill="none" stroke="#AF1324" stroke-width="6.5389" stroke-miterlimit="10" x1="445.935" y1="50.991" x2="423.255" y2="73.675"/>
	
		<line fill="none" stroke="#AF1324" stroke-width="6.5389" stroke-miterlimit="10" x1="423.254" y1="50.991" x2="445.935" y2="73.675"/>
</g>
<polyline fill="none" stroke="#2FAF22" stroke-width="6.5389" stroke-miterlimit="10" points="530.884,53.143 512.505,71.523 
	503.155,62.175 "/>
</svg>
