<svg xmlns="http://www.w3.org/2000/svg" viewBox="0 0 468.26 480.92">
    <defs>
        <style>
            .bg {
                fill: #231f20;
            }
        </style>
    </defs>
    <title>Digital photo upload</title>
    <g id="digital-photo-upload" data-name="Digital photo upload">
        <path class="bg" d="M4.87,342.61l10.12.06a19.63,19.63,0,0,1,13.94,5.71,18.61,18.61,0,0,1,6,14.06,19.63,19.63,0,0,1-5.88,14.3,19.25,19.25,0,0,1-14.25,6h-10c-2.22,0-3.61-.45-4.15-1.36a7.26,7.26,0,0,1-.66-3.5V347.42a16.92,16.92,0,0,1,.08-1.91,4.52,4.52,0,0,1,.52-1.42C1.11,343.1,2.53,342.61,4.87,342.61ZM22.1,370.1a9.61,9.61,0,0,0,3.17-7.36,9.89,9.89,0,0,0-3.09-7.41,10.1,10.1,0,0,0-7.25-3H9.68V373H15A10.24,10.24,0,0,0,22.1,370.1Z" />
        <path class="bg" d="M42.61,347.48a17.15,17.15,0,0,1,.08-1.89,4.57,4.57,0,0,1,.52-1.45c.51-1,1.93-1.47,4.27-1.47q3.83,0,4.54,2a11,11,0,0,1,.27,2.84V378a16.92,16.92,0,0,1-.08,1.91,4.52,4.52,0,0,1-.52,1.42c-.51,1-1.94,1.48-4.27,1.48q-3.83,0-4.48-2.08a8.53,8.53,0,0,1-.33-2.79Z" />
        <path class="bg" d="M81.66,358.58h9.63c2,.08,3.17.59,3.61,1.53a6.89,6.89,0,0,1,.54,3.07v12a4.79,4.79,0,0,1-1.53,3.34q-4.59,4.76-13.78,4.76A19.2,19.2,0,0,1,66,377.15a20.46,20.46,0,0,1-6-14.85,19.21,19.21,0,0,1,6.12-14.52,20.26,20.26,0,0,1,26.64-1.56,3.08,3.08,0,0,1,1.48,2.44,5.56,5.56,0,0,1-1.26,3.09q-2.13,2.89-3.89,2.89a7.51,7.51,0,0,1-3.33-1.5,9.79,9.79,0,0,0-5.47-1.5,10.71,10.71,0,0,0-7.39,2.92,9.86,9.86,0,0,0-3.22,7.66,11,11,0,0,0,3.28,8,10.21,10.21,0,0,0,7.44,3.31,14.1,14.1,0,0,0,5.41-1v-6H81.44a4.84,4.84,0,0,1-2.4-.43,2,2,0,0,1-.93-1.29,9.38,9.38,0,0,1-.22-2.3,9.06,9.06,0,0,1,.24-2.32,1.8,1.8,0,0,1,.91-1.2A5.85,5.85,0,0,1,81.66,358.58Z" />
        <path class="bg" d="M103.92,347.48a17.15,17.15,0,0,1,.08-1.89,4.57,4.57,0,0,1,.52-1.45c.51-1,1.94-1.47,4.27-1.47,2.55,0,4.07.67,4.54,2a11,11,0,0,1,.27,2.84V378a14.8,14.8,0,0,1-.08,1.91,4.29,4.29,0,0,1-.52,1.42c-.51,1-1.93,1.48-4.26,1.48-2.56,0-4-.69-4.49-2.08a8.53,8.53,0,0,1-.33-2.79Z" />
        <path class="bg" d="M124.71,342.61h30.41a6.1,6.1,0,0,1,2.57.41,2,2,0,0,1,1.09,1.29,7.93,7.93,0,0,1,.28,2.29,7.64,7.64,0,0,1-.28,2.27,1.86,1.86,0,0,1-.93,1.18,6.31,6.31,0,0,1-2.79.49H144.62v27.51a14.09,14.09,0,0,1-.09,1.87,4.16,4.16,0,0,1-.49,1.39,2.29,2.29,0,0,1-1.45,1.12,9.23,9.23,0,0,1-2.73.33,9,9,0,0,1-2.71-.33,2.31,2.31,0,0,1-1.42-1.12,4.37,4.37,0,0,1-.49-1.42,14.54,14.54,0,0,1-.09-1.89V350.54h-10.5a6,6,0,0,1-2.57-.41,2,2,0,0,1-1.09-1.28,7.66,7.66,0,0,1-.28-2.3,7.36,7.36,0,0,1,.28-2.27,1.86,1.86,0,0,1,.93-1.18A6.46,6.46,0,0,1,124.71,342.61Z" />
        <path class="bg" d="M181.1,345.51,195.87,376a7.14,7.14,0,0,1,.93,2.79q0,2-3.18,3.56a7.16,7.16,0,0,1-2.92.93,2.9,2.9,0,0,1-1.75-.5,3.11,3.11,0,0,1-1-1c-.2-.36-.48-.91-.84-1.64l-2.85-5.9H169.12l-2.84,5.9c-.37.73-.65,1.26-.85,1.59a3.73,3.73,0,0,1-1,1,2.78,2.78,0,0,1-1.75.52,7.16,7.16,0,0,1-2.92-.93q-3.18-1.53-3.18-3.5a7.14,7.14,0,0,1,.93-2.79l14.77-30.57a4.77,4.77,0,0,1,1.83-2,4.87,4.87,0,0,1,2.6-.76A4.64,4.64,0,0,1,181.1,345.51Zm-4.43,13.13-3.61,7.49h7.27Z" />
        <path class="bg" d="M213.59,374.66h14.88a6.27,6.27,0,0,1,2.62.41,2.09,2.09,0,0,1,1.09,1.29,9.79,9.79,0,0,1,0,4.65,1.88,1.88,0,0,1-.93,1.2,6.07,6.07,0,0,1-2.84.55H208.72q-3.83,0-4.49-2.08a8.88,8.88,0,0,1-.32-2.79V347.48a15,15,0,0,1,.08-1.89,4.34,4.34,0,0,1,.52-1.45q.77-1.47,4.26-1.47,3.84,0,4.54,2a10.49,10.49,0,0,1,.28,2.84Z" />
        <path class="bg" d="M287.65,350.76a14.58,14.58,0,0,1,1.42,6.46,14.35,14.35,0,0,1-1.42,6.42,12.56,12.56,0,0,1-3.67,4.57,15.24,15.24,0,0,1-9.41,3.5h-6.83v6.18a17.15,17.15,0,0,1-.08,1.89,4.57,4.57,0,0,1-.52,1.45c-.52,1-1.94,1.47-4.27,1.47q-3.83,0-4.49-2a9.47,9.47,0,0,1-.32-2.84V347.48a15,15,0,0,1,.08-1.89,4.34,4.34,0,0,1,.52-1.45q.76-1.47,4.26-1.47h11.71a15.1,15.1,0,0,1,9.35,3.5A12.55,12.55,0,0,1,287.65,350.76Zm-9.79,10.07a4.28,4.28,0,0,0,1.58-3.61,4.34,4.34,0,0,0-1.58-3.64,5.33,5.33,0,0,0-3.29-1.23h-6.83V362h6.89A5.33,5.33,0,0,0,277.86,360.83Z" />
        <path class="bg" d="M321.5,344.14A2.44,2.44,0,0,1,323,343a9.18,9.18,0,0,1,2.62-.32,9.38,9.38,0,0,1,2.52.27,4.18,4.18,0,0,1,1.42.66,2.42,2.42,0,0,1,.77,1.09,11,11,0,0,1,.27,2.84v30.36a17.15,17.15,0,0,1-.08,1.89,4.34,4.34,0,0,1-.52,1.45c-.51,1-1.93,1.47-4.27,1.47q-3.82,0-4.48-2a9.09,9.09,0,0,1-.33-2.84V366.73H306.41v11.16a14.54,14.54,0,0,1-.09,1.89,4.13,4.13,0,0,1-.52,1.45q-.76,1.47-4.26,1.47-3.82,0-4.49-2a9.09,9.09,0,0,1-.33-2.84V347.48a14.54,14.54,0,0,1,.09-1.89,4.13,4.13,0,0,1,.52-1.45q.76-1.47,4.26-1.47c2.55,0,4.07.67,4.54,2a10.92,10.92,0,0,1,.28,2.84v11.16H320.9V347.48a17.15,17.15,0,0,1,.08-1.89A4.57,4.57,0,0,1,321.5,344.14Z" />
        <path class="bg" d="M357.88,342.17a20.18,20.18,0,0,1,20,20.38,20.88,20.88,0,0,1-5.68,14.77,18.43,18.43,0,0,1-14,6.1,19,19,0,0,1-14.14-6,19.9,19.9,0,0,1-5.82-14.33,22.13,22.13,0,0,1,1.64-8.51,19.52,19.52,0,0,1,4.38-6.64,20.37,20.37,0,0,1,6.29-4.21A18.2,18.2,0,0,1,357.88,342.17Zm-10,20.62a10.5,10.5,0,0,0,3.15,7.91,9.72,9.72,0,0,0,14,.08,10.43,10.43,0,0,0,3.11-7.93,10.54,10.54,0,0,0-3.14-8,10,10,0,0,0-7-3,9.81,9.81,0,0,0-7,3A10.54,10.54,0,0,0,347.92,362.79Z" />
        <path class="bg" d="M384.9,342.61h30.41a6.13,6.13,0,0,1,2.57.41,2,2,0,0,1,1.09,1.29,7.93,7.93,0,0,1,.28,2.29,7.64,7.64,0,0,1-.28,2.27,1.86,1.86,0,0,1-.93,1.18,6.31,6.31,0,0,1-2.79.49H404.81v27.51a14.09,14.09,0,0,1-.09,1.87,4.4,4.4,0,0,1-.49,1.39,2.32,2.32,0,0,1-1.45,1.12,9.23,9.23,0,0,1-2.73.33,9,9,0,0,1-2.71-.33,2.31,2.31,0,0,1-1.42-1.12,4.14,4.14,0,0,1-.49-1.42,14.54,14.54,0,0,1-.09-1.89V350.54h-10.5a6,6,0,0,1-2.57-.41,2,2,0,0,1-1.09-1.28,7.66,7.66,0,0,1-.28-2.3,7.36,7.36,0,0,1,.28-2.27,1.86,1.86,0,0,1,.93-1.18A6.46,6.46,0,0,1,384.9,342.61Z" />
        <path class="bg" d="M441.89,342.17a20.18,20.18,0,0,1,20,20.38,20.89,20.89,0,0,1-5.69,14.77,18.41,18.41,0,0,1-14,6.1,18.94,18.94,0,0,1-14.14-6,19.87,19.87,0,0,1-5.83-14.33,22.13,22.13,0,0,1,1.64-8.51,19.81,19.81,0,0,1,4.38-6.64,20.37,20.37,0,0,1,6.29-4.21A18.2,18.2,0,0,1,441.89,342.17Zm-10,20.62a10.5,10.5,0,0,0,3.15,7.91,9.72,9.72,0,0,0,14,.08,10.4,10.4,0,0,0,3.12-7.93,10.54,10.54,0,0,0-3.15-8,10,10,0,0,0-7-3,9.81,9.81,0,0,0-7,3A10.54,10.54,0,0,0,431.93,362.79Z" />
        <path class="bg" d="M51.52,407a5.26,5.26,0,0,1,3-2.26,16.61,16.61,0,0,1,4.9-.62,17.27,17.27,0,0,1,4.68.51,8.29,8.29,0,0,1,2.68,1.24A4,4,0,0,1,68.1,408a17.33,17.33,0,0,1,.62,5.36v31.11a39.93,39.93,0,0,1-8.45,24.72,30.57,30.57,0,0,1-10.61,8.5,31.68,31.68,0,0,1-14.37,3.24A31.09,31.09,0,0,1,21,477.63,29.76,29.76,0,0,1,10.52,469a39.63,39.63,0,0,1-8.34-24.72v-31a32.11,32.11,0,0,1,.15-3.66,8.18,8.18,0,0,1,1-2.73,4.52,4.52,0,0,1,2.78-2.16,18.05,18.05,0,0,1,5.25-.62,18.13,18.13,0,0,1,5.26.62,4.16,4.16,0,0,1,2.68,2.16,14.22,14.22,0,0,1,1.23,6.49v30.9A24.58,24.58,0,0,0,23.6,456.2a11.63,11.63,0,0,0,4.64,4.64,14.54,14.54,0,0,0,7.31,1.75q7.52,0,11.23-5.56a22.69,22.69,0,0,0,3.71-12.88V412.63Q50.49,408.61,51.52,407Z" />
        <path class="bg" d="M140.41,419.43a27.16,27.16,0,0,1,2.68,12.15,26.86,26.86,0,0,1-2.68,12.11,23.71,23.71,0,0,1-6.9,8.6q-8.55,6.58-17.72,6.59H102.92v11.64a28.07,28.07,0,0,1-.16,3.55,8.36,8.36,0,0,1-1,2.73c-1,1.86-3.65,2.78-8,2.78q-7.22,0-8.45-3.81a17.27,17.27,0,0,1-.61-5.35V413.25a30.94,30.94,0,0,1,.15-3.56,8.18,8.18,0,0,1,1-2.73q1.44-2.77,8-2.78H115.9q9.06,0,17.61,6.6A23.48,23.48,0,0,1,140.41,419.43ZM122,438.38c2-1.51,3-3.77,3-6.8a8.12,8.12,0,0,0-3-6.85,10,10,0,0,0-6.18-2.31H102.92v18.23h13A10,10,0,0,0,122,438.38Z" />
        <path class="bg" d="M175.74,464.44h28a11.83,11.83,0,0,1,5,.77,4,4,0,0,1,2.06,2.43,19,19,0,0,1,0,8.75,3.57,3.57,0,0,1-1.76,2.27,11.67,11.67,0,0,1-5.35,1H166.58q-7.22,0-8.45-3.92a16.2,16.2,0,0,1-.62-5.25V413.25a28.36,28.36,0,0,1,.16-3.56,8.13,8.13,0,0,1,1-2.73q1.44-2.77,8-2.78,7.2,0,8.55,3.81a20.74,20.74,0,0,1,.51,5.36Z" />
        <path class="bg" d="M261.14,403.26a36.54,36.54,0,0,1,26.47,11q11.22,11,11.23,27.35a39.28,39.28,0,0,1-10.72,27.81,34.62,34.62,0,0,1-26.37,11.48,35.65,35.65,0,0,1-26.62-11.33,37.43,37.43,0,0,1-11-27,41.48,41.48,0,0,1,3.09-16,37.1,37.1,0,0,1,8.24-12.52,38.58,38.58,0,0,1,11.84-7.93A34.65,34.65,0,0,1,261.14,403.26Zm-18.75,38.83q0,9.17,5.92,14.88a18.29,18.29,0,0,0,26.42.16q5.88-5.56,5.87-14.94t-5.92-15a18.73,18.73,0,0,0-13.23-5.66,18.42,18.42,0,0,0-13.19,5.72Q242.4,432.92,242.39,442.09Z" />
        <path class="bg" d="M351.68,409.54,379.49,467a13.34,13.34,0,0,1,1.75,5.25q0,3.71-6,6.7a13.64,13.64,0,0,1-5.51,1.75,5.51,5.51,0,0,1-3.3-.93,6.14,6.14,0,0,1-1.85-2c-.38-.68-.91-1.71-1.6-3.09l-5.35-11.12H329.12l-5.35,11.12c-.69,1.38-1.22,2.37-1.6,3a7.59,7.59,0,0,1-1.85,1.91,5.32,5.32,0,0,1-3.3,1,13.44,13.44,0,0,1-5.51-1.75q-6-2.88-6-6.59a13.51,13.51,0,0,1,1.75-5.25l27.82-57.58a9,9,0,0,1,3.45-3.82,9.09,9.09,0,0,1,4.89-1.44Q349,404.18,351.68,409.54Zm-8.34,24.72-6.8,14.11h13.7Z" />
        <path class="bg" d="M403.8,404.08l19.06.1q14.94,0,26.27,10.77a35.08,35.08,0,0,1,11.33,26.47,37,37,0,0,1-11.08,26.94,36.29,36.29,0,0,1-26.83,11.22H403.7c-4.19,0-6.8-.85-7.83-2.57a13.72,13.72,0,0,1-1.24-6.59V413.14a30,30,0,0,1,.16-3.6,8.2,8.2,0,0,1,1-2.68Q397.21,404.09,403.8,404.08Zm32.45,51.76a18,18,0,0,0,6-13.85,18.62,18.62,0,0,0-5.81-14,19.07,19.07,0,0,0-13.65-5.61h-9.89v38.93h10A19.24,19.24,0,0,0,436.25,455.84Z" />
        <path class="bg" d="M353.24,65.94a150.68,150.68,0,0,0-270,45.37A95.44,95.44,0,0,0,95.65,301.36h87.83s66.27-.2,69.26-45.68a6.76,6.76,0,0,0,.12-1.19V170.12l26.53,26.54a17.64,17.64,0,1,0,24.93-24.95l-56.64-56.63a17.61,17.61,0,0,0-24.93,0l-56.64,56.63A17.64,17.64,0,1,0,191,196.66l26.55-26.55v83.15c-.24,2.91-3.29,12.83-34.11,12.83H95.65a60.16,60.16,0,1,1,0-120.31H96.9a17.63,17.63,0,0,0,18-14.66A115.41,115.41,0,0,1,328.53,92.79a17.63,17.63,0,0,0,16.75,8.73c2.64-.24,5-.34,7.22-.34a82.45,82.45,0,0,1,0,164.88H287a17.64,17.64,0,1,0,0,35.27H352.5a117.72,117.72,0,0,0,.74-235.39Z" />
    </g>
</svg>