<svg xmlns="http://www.w3.org/2000/svg" viewBox="0 0 332.21 192.19"><defs><style>.cls-1,.cls-63{fill:none;}.cls-1{stroke:#000;stroke-width:0.25px;}.cls-1,.cls-62,.cls-63{stroke-miterlimit:10;}.cls-14,.cls-2,.cls-26{font-size:8px;}.cls-2{font-family:Elmhurst-Bold, Elmhurst;font-weight:700;}.cls-3{letter-spacing:0em;}.cls-4{letter-spacing:0.03em;}.cls-5{letter-spacing:0em;}.cls-6{letter-spacing:0.01em;}.cls-7{letter-spacing:-0.06em;}.cls-8{letter-spacing:0em;}.cls-9{letter-spacing:-0.05em;}.cls-10{letter-spacing:0em;}.cls-11{letter-spacing:-0.02em;}.cls-12{letter-spacing:0em;}.cls-13{letter-spacing:0.02em;}.cls-14,.cls-26,.cls-75{font-family:OCRBStd, OCR B Std;}.cls-15,.cls-57{font-size:6px;}.cls-15{font-family:Elmhurst-Regular, Elmhurst;letter-spacing:-0.06em;}.cls-16{letter-spacing:0.01em;}.cls-17{letter-spacing:0.01em;}.cls-18{letter-spacing:0.01em;}.cls-19{letter-spacing:-0.02em;}.cls-20{letter-spacing:0.01em;}.cls-21{letter-spacing:-0.02em;}.cls-22{font-size:5px;}.cls-22,.cls-64{fill:#4d4d4d;font-family:OmnesCond-Regular, Omnes Cond;}.cls-23{letter-spacing:-0.05em;}.cls-24{letter-spacing:-0.01em;}.cls-25{letter-spacing:0em;}.cls-26{letter-spacing:0.1em;}.cls-27{letter-spacing:-0.02em;}.cls-28{letter-spacing:0em;}.cls-29{letter-spacing:0em;}.cls-30{letter-spacing:0em;}.cls-31{letter-spacing:0em;}.cls-32{letter-spacing:0em;}.cls-33{letter-spacing:0em;}.cls-34{letter-spacing:0em;}.cls-35{letter-spacing:0em;}.cls-36{letter-spacing:-0.02em;}.cls-37{letter-spacing:-0.01em;}.cls-38{letter-spacing:-0.02em;}.cls-39{letter-spacing:-0.05em;}.cls-40{letter-spacing:-0.02em;}.cls-41{letter-spacing:0.01em;}.cls-42{letter-spacing:-0.01em;}.cls-43{letter-spacing:-0.01em;}.cls-44{letter-spacing:0em;}.cls-45{letter-spacing:0em;}.cls-46{letter-spacing:-0.01em;}.cls-47{letter-spacing:-0.01em;}.cls-48{letter-spacing:-0.02em;}.cls-49{letter-spacing:-0.01em;}.cls-50{letter-spacing:-0.03em;}.cls-51{letter-spacing:-0.01em;}.cls-52{letter-spacing:-0.02em;}.cls-53{letter-spacing:-0.02em;}.cls-54{letter-spacing:-0.02em;}.cls-55{letter-spacing:-0.02em;}.cls-56{letter-spacing:-0.01em;}.cls-57{font-family:SignPainter-HouseScript, SignPainter;letter-spacing:0.1em;}.cls-58{letter-spacing:0.07em;}.cls-59{letter-spacing:0.08em;}.cls-60{letter-spacing:0.09em;}.cls-61{letter-spacing:0.09em;}.cls-62{fill:#fff;stroke-width:4px;}.cls-62,.cls-63{stroke:#28a197;}.cls-63{stroke-width:2px;}.cls-64{font-size:8.37px;}.cls-65{letter-spacing:0em;}.cls-66{letter-spacing:0em;}.cls-67{letter-spacing:-0.02em;}.cls-68{letter-spacing:-0.01em;}.cls-69{letter-spacing:-0.01em;}.cls-70{letter-spacing:0.01em;}.cls-71{letter-spacing:0em;}.cls-72{letter-spacing:0em;}.cls-73{letter-spacing:-0.01em;}.cls-74{letter-spacing:0em;}.cls-75{font-size:11px;}.cls-76{fill:#666;}</style></defs><title>Asset 8</title><g id="Layer_2" data-name="Layer 2"><g id="Icon"><rect class="cls-1" x="0.13" y="0.13" width="300.83" height="184.86" rx="8.81"/><text class="cls-2" transform="translate(16.32 13.95)">UNIT<tspan class="cls-3" x="21.14" y="0">E</tspan><tspan x="26.57" y="0">D KING</tspan><tspan class="cls-4" x="56.65" y="0">D</tspan><tspan class="cls-5" x="63.34" y="0">O</tspan><tspan x="69.42" y="0">M OF G</tspan><tspan class="cls-3" x="98.07" y="0">R</tspan><tspan class="cls-6" x="103.85" y="0">E</tspan><tspan class="cls-7" x="109.38" y="0">A</tspan><tspan x="114.96" y="0">T </tspan><tspan class="cls-8" x="122.42" y="0">B</tspan><tspan x="128.01" y="0">RI</tspan><tspan class="cls-9" x="137.06" y="0">T</tspan><tspan class="cls-10" x="142.22" y="0">AIN AND NO</tspan><tspan class="cls-11" x="192.97" y="0">R</tspan><tspan x="198.57" y="0">THERN I</tspan><tspan class="cls-12" x="233.59" y="0">R</tspan><tspan x="239.37" y="0">E</tspan><tspan class="cls-13" x="244.82" y="0">L</tspan><tspan x="250.24" y="0">AND</tspan></text><text class="cls-14" transform="translate(7.46 166.82)">P&lt;GBRUK&lt;SPECIMEN&lt;&lt;ANGELA&lt;ZOE&lt;&lt;&lt;&lt;&lt;&lt;&lt;&lt;&lt;&lt;&lt;&lt;&lt;&lt;&lt;&lt;&lt;&lt;<tspan x="0" y="9.6">5333800068GBR8812049F2509286&lt;&lt;&lt;&lt;&lt;&lt;&lt;&lt;&lt;&lt;&lt;&lt;&lt;&lt;&lt;&lt;04</tspan></text><text class="cls-15" transform="translate(28.76 29.07)">P<tspan class="cls-16" x="3.35" y="0">A</tspan><tspan class="cls-17" x="7.81" y="0">SS</tspan><tspan class="cls-18" x="14.39" y="0">P</tspan><tspan class="cls-17" x="18.2" y="0">O</tspan><tspan class="cls-19" x="22.66" y="0">R</tspan><tspan class="cls-17" x="26.74" y="0">T</tspan><tspan x="-2.07" y="7.2">P</tspan><tspan class="cls-16" x="1.29" y="7.2">A</tspan><tspan class="cls-17" x="5.74" y="7.2">SSE</tspan><tspan class="cls-18" x="16.45" y="7.2">P</tspan><tspan class="cls-20" x="20.26" y="7.2">O</tspan><tspan class="cls-21" x="24.73" y="7.2">R</tspan><tspan class="cls-17" x="28.8" y="7.2">T</tspan></text><text class="cls-22" transform="translate(86.4 27.08)"><tspan class="cls-23">T</tspan><tspan x="2.15" y="0">yp</tspan><tspan class="cls-24" x="6.79" y="0">e</tspan><tspan class="cls-25" x="9.09" y="0">/</tspan><tspan class="cls-23" x="10.5" y="0">T</tspan><tspan x="12.65" y="0">ype</tspan></text><text class="cls-26" transform="translate(86.4 34.87)">P</text><text class="cls-22" transform="translate(153.72 27.08)">Cod<tspan class="cls-24" x="7.79" y="0">e</tspan><tspan class="cls-27" x="10.08" y="0">/</tspan><tspan class="cls-28" x="11.42" y="0">Code</tspan></text><text class="cls-14" transform="translate(153.72 35.45)">GBR</text><text class="cls-22" transform="translate(207.22 27.08)"><tspan class="cls-29">P</tspan><tspan class="cls-30" x="2.47" y="0">asspo</tspan><tspan class="cls-31" x="13.73" y="0">r</tspan><tspan x="15.31" y="0">t </tspan><tspan class="cls-32" x="17.61" y="0">N</tspan><tspan class="cls-8" x="20.61" y="0">o</tspan><tspan x="23.09" y="0">/</tspan><tspan class="cls-12" x="24.52" y="0">P</tspan><tspan x="26.99" y="0">assepo</tspan><tspan class="cls-33" x="40.57" y="0">r</tspan><tspan x="42.15" y="0">t </tspan><tspan class="cls-34" x="44.45" y="0">N</tspan><tspan x="47.46" y="0">o</tspan></text><text class="cls-14" transform="translate(207.22 35.45)">5333380006</text><text class="cls-22" transform="translate(86.4 43.2)"><tspan class="cls-24">S</tspan><tspan x="2.34" y="0">urnam</tspan><tspan class="cls-24" x="14.92" y="0">e</tspan><tspan class="cls-28" x="17.21" y="0">/</tspan><tspan class="cls-34" x="18.64" y="0">N</tspan><tspan x="21.65" y="0">om (1)</tspan></text><text class="cls-14" transform="translate(86.4 50.99)">UK SPECIMEN</text><text class="cls-22" transform="translate(86.4 75.44)">N<tspan class="cls-34" x="3.02" y="0">a</tspan><tspan class="cls-28" x="5.31" y="0">tiona</tspan><tspan class="cls-35" x="15.11" y="0">l</tspan><tspan x="16.17" y="0">it</tspan><tspan class="cls-36" x="18.76" y="0">y</tspan><tspan class="cls-28" x="20.78" y="0">/N</tspan><tspan class="cls-34" x="25.23" y="0">a</tspan><tspan class="cls-28" x="27.52" y="0">tiona</tspan><tspan class="cls-35" x="37.33" y="0">l</tspan><tspan x="38.39" y="0">i</tspan><tspan class="cls-32" x="39.44" y="0">t</tspan><tspan x="40.96" y="0">e (</tspan><tspan class="cls-37" x="45.71" y="0">3</tspan><tspan x="47.98" y="0">)</tspan></text><text class="cls-14" transform="translate(86.4 83.23)">BRITISH CITIZEN</text><text class="cls-22" transform="translate(86.4 91.56)">D<tspan class="cls-32" x="2.94" y="0">at</tspan><tspan x="6.74" y="0">e </tspan><tspan class="cls-25" x="9.83" y="0">o</tspan><tspan class="cls-38" x="12.27" y="0">f</tspan><tspan x="13.55" y="0" xml:space="preserve"> bi</tspan><tspan class="cls-33" x="17.89" y="0">r</tspan><tspan x="19.47" y="0">th/D</tspan><tspan class="cls-34" x="27.83" y="0">at</tspan><tspan x="31.63" y="0">e de naissance </tspan><tspan class="cls-39" x="60.2" y="0">(</tspan><tspan class="cls-40" x="61.59" y="0">4</tspan><tspan x="64.01" y="0">)</tspan></text><text class="cls-14" transform="translate(86.4 99.35)">04 DEC /DEC 88</text><text class="cls-22" transform="translate(86.4 59.32)">Given name<tspan class="cls-41" x="22.64" y="0">s</tspan><tspan class="cls-28" x="24.67" y="0">/P</tspan><tspan class="cls-27" x="28.59" y="0">r</tspan><tspan x="30.06" y="0">enoms (2)</tspan></text><text class="cls-14" transform="translate(86.4 67.11)">ANGELA ZOE</text><text class="cls-22" transform="translate(86.4 107.68)">S<tspan class="cls-42" x="2.38" y="0">e</tspan><tspan x="4.65" y="0">x/S</tspan><tspan class="cls-42" x="10.54" y="0">e</tspan><tspan class="cls-43" x="12.82" y="0">x</tspan><tspan class="cls-28" x="14.87" y="0">e (5)</tspan></text><text class="cls-14" transform="translate(86.4 115.46)">F</text><text class="cls-22" transform="translate(126.91 107.67)">P<tspan class="cls-44" x="2.49" y="0">l</tspan><tspan class="cls-30" x="3.51" y="0">ace </tspan><tspan class="cls-25" x="11.11" y="0">o</tspan><tspan class="cls-40" x="13.55" y="0">f</tspan><tspan class="cls-28" x="14.84" y="0" xml:space="preserve"> bi</tspan><tspan class="cls-31" x="19.17" y="0">r</tspan><tspan x="20.75" y="0">th/Li</tspan><tspan class="cls-29" x="29.46" y="0">e</tspan><tspan class="cls-42" x="31.77" y="0">u</tspan><tspan x="34.17" y="0" xml:space="preserve"> de naissance </tspan><tspan class="cls-38" x="60.41" y="0">(</tspan><tspan class="cls-45" x="61.96" y="0">6</tspan><tspan x="64.5" y="0">)</tspan></text><text class="cls-14" transform="translate(126.91 115.94)">CROYDON</text><text class="cls-22" transform="translate(86.4 123.79)">D<tspan class="cls-32" x="2.94" y="0">at</tspan><tspan x="6.74" y="0">e </tspan><tspan class="cls-25" x="9.83" y="0">o</tspan><tspan class="cls-38" x="12.27" y="0">f</tspan><tspan x="13.55" y="0" xml:space="preserve"> is</tspan><tspan class="cls-25" x="17.36" y="0">su</tspan><tspan class="cls-24" x="21.75" y="0">e</tspan><tspan x="24.04" y="0">/D</tspan><tspan class="cls-34" x="28.41" y="0">at</tspan><tspan class="cls-28" x="32.21" y="0">e de de</tspan><tspan class="cls-35" x="45.77" y="0">l</tspan><tspan x="46.83" y="0">ive</tspan><tspan class="cls-46" x="52.32" y="0">r</tspan><tspan x="53.83" y="0">ance (7)</tspan></text><text class="cls-14" transform="translate(86.4 131.58)">28 SEP /SEPT 08</text><text class="cls-22" transform="translate(179.53 123.79)"><tspan class="cls-47">A</tspan><tspan x="2.63" y="0">uthorit</tspan><tspan class="cls-36" x="15.7" y="0">y</tspan><tspan class="cls-48" x="17.72" y="0">/</tspan><tspan class="cls-47" x="19.07" y="0">A</tspan><tspan x="21.7" y="0">u</tspan><tspan class="cls-32" x="24.15" y="0">t</tspan><tspan x="25.67" y="0">ori</tspan><tspan class="cls-32" x="30.75" y="0">t</tspan><tspan x="32.27" y="0">e </tspan><tspan class="cls-49" x="35.36" y="0">(8</tspan><tspan class="cls-28" x="39.42" y="0">)</tspan></text><text class="cls-14" transform="translate(179.53 131.26)">HMPO</text><text class="cls-22" transform="translate(86.4 139.91)">D<tspan class="cls-32" x="2.94" y="0">at</tspan><tspan x="6.74" y="0">e </tspan><tspan class="cls-25" x="9.83" y="0">o</tspan><tspan class="cls-38" x="12.27" y="0">f</tspan><tspan x="13.55" y="0"> </tspan><tspan class="cls-42" x="14.32" y="0">e</tspan><tspan class="cls-30" x="16.59" y="0">xpir</tspan><tspan class="cls-36" x="23.82" y="0">y</tspan><tspan x="25.85" y="0">/D</tspan><tspan class="cls-34" x="30.21" y="0">at</tspan><tspan x="34.02" y="0">e d</tspan><tspan class="cls-50" x="39.63" y="0">’</tspan><tspan class="cls-42" x="40.45" y="0">e</tspan><tspan x="42.72" y="0">xpi</tspan><tspan class="cls-51" x="48.38" y="0">r</tspan><tspan class="cls-34" x="49.89" y="0">a</tspan><tspan x="52.18" y="0">tion </tspan><tspan class="cls-44" x="60.45" y="0">(</tspan><tspan class="cls-52" x="62.1" y="0">9</tspan><tspan class="cls-28" x="64.54" y="0">)</tspan></text><text class="cls-14" transform="translate(86.4 147.7)">28 SEP /SEPT 18</text><text class="cls-22" transform="translate(184.2 139.91)"><tspan class="cls-32">H</tspan><tspan x="2.98" y="0">olde</tspan><tspan class="cls-33" x="11.33" y="0">r</tspan><tspan class="cls-53" x="12.91" y="0">’</tspan><tspan x="13.76" y="0">s sign</tspan><tspan class="cls-34" x="24.07" y="0">a</tspan><tspan class="cls-54" x="26.36" y="0">t</tspan><tspan x="27.81" y="0">u</tspan><tspan class="cls-55" x="30.26" y="0">r</tspan><tspan class="cls-24" x="31.74" y="0">e</tspan><tspan class="cls-28" x="34.03" y="0">/Sign</tspan><tspan class="cls-34" x="43.41" y="0">a</tspan><tspan class="cls-48" x="45.69" y="0">t</tspan><tspan x="47.14" y="0">u</tspan><tspan class="cls-27" x="49.6" y="0">r</tspan><tspan x="51.07" y="0">e d</tspan><tspan class="cls-42" x="56.69" y="0">u</tspan><tspan class="cls-56" x="59.09" y="0"> </tspan><tspan x="59.82" y="0">ti</tspan><tspan class="cls-48" x="62.41" y="0">t</tspan><tspan x="63.86" y="0">u</tspan><tspan class="cls-44" x="66.31" y="0">l</tspan><tspan x="67.34" y="0">ai</tspan><tspan class="cls-55" x="70.69" y="0">r</tspan><tspan x="72.16" y="0">e (1</tspan><tspan class="cls-38" x="78.53" y="0">0</tspan><tspan class="cls-28" x="81.18" y="0">)</tspan></text><text class="cls-57" transform="translate(196.36 146.97)">A <tspan class="cls-58" x="5.17" y="0">U</tspan><tspan x="8.3" y="0">K </tspan><tspan class="cls-59" x="13.21" y="0">S</tspan><tspan class="cls-60" x="16.34" y="0">PE</tspan><tspan x="22.18" y="0">C</tspan><tspan class="cls-61" x="25.55" y="0">I</tspan><tspan x="27.17" y="0">M</tspan><tspan class="cls-58" x="31.21" y="0">E</tspan><tspan x="33.83" y="0">N</tspan></text><circle class="cls-62" cx="266.23" cy="126.22" r="63.98"/><ellipse class="cls-63" cx="128.81" cy="126.26" rx="49.17" ry="15.49"/><text class="cls-64" transform="translate(206.97 122.7)">D<tspan class="cls-65" x="4.91" y="0">at</tspan><tspan x="11.28" y="0">e </tspan><tspan class="cls-66" x="16.45" y="0">o</tspan><tspan class="cls-67" x="20.53" y="0">f</tspan><tspan x="22.69" y="0" xml:space="preserve"> is</tspan><tspan class="cls-68" x="29.06" y="0">s</tspan><tspan class="cls-69" x="32.35" y="0">ue</tspan><tspan x="40.25" y="0">/D</tspan><tspan class="cls-65" x="47.55" y="0">at</tspan><tspan x="53.92" y="0">e de de</tspan><tspan class="cls-70" x="76.61" y="0">l</tspan><tspan class="cls-71" x="78.38" y="0">i</tspan><tspan class="cls-72" x="80.14" y="0">v</tspan><tspan x="83.69" y="0">e</tspan><tspan class="cls-73" x="87.58" y="0">r</tspan><tspan x="90.11" y="0">ance </tspan><tspan class="cls-74" x="106.95" y="0">(</tspan><tspan x="109.74" y="0">7)</tspan></text><text class="cls-75" transform="translate(206.97 135.73)">28 SEP /SEPT 08</text><line class="cls-63" x1="177.98" y1="125.84" x2="202.26" y2="126.22"/><path class="cls-76" d="M58.12,91.41l-.29.36a17.58,17.58,0,0,1-27.49,0l-.29-.36a27.81,27.81,0,0,0-16.27,25.23v7.2a3.67,3.67,0,0,0,3.67,3.67H70.73a3.67,3.67,0,0,0,3.67-3.67v-7.2A27.81,27.81,0,0,0,58.12,91.41Z"/><path class="cls-76" d="M44.09,95.24a14.81,14.81,0,0,0,10.92-5,20.35,20.35,0,0,0,5.14-13.79C60.15,66,53,57.6,44.09,57.6S28,66,28,76.42a20.35,20.35,0,0,0,5.14,13.79A14.8,14.8,0,0,0,44.09,95.24Z"/></g></g></svg>