<?xml version="1.0" encoding="utf-8"?>
<!-- Generator: Adobe Illustrator 21.0.1, SVG Export Plug-In . SVG Version: 6.00 Build 0)  -->
<svg version="1.1" id="Layer_1" xmlns="http://www.w3.org/2000/svg" xmlns:xlink="http://www.w3.org/1999/xlink" x="0px" y="0px"
	 viewBox="0 0 402 410" style="enable-background:new 0 0 402 410;" xml:space="preserve">
<style type="text/css">
	.st0{fill:#FFFFFF;}
	.st1{fill:none;stroke:#0A0B09;stroke-width:19.624;stroke-linecap:round;stroke-linejoin:round;}
	.st2{fill:#0A0B09;}
	.st3{fill:#00823B;}
</style>
<g>
	<path id="path-1" class="st0" d="M-100.1,410H402V-18.8h-502.1"/>
</g>
<g id="Layer_2">
</g>
<g id="Page-1_1_" sketch:type="MSPage">
	<g id="Group-53" transform="translate(-101.000000, -19.000000)" sketch:type="MSLayerGroup">
		<path id="Fill-39_1_" sketch:type="MSShapeGroup" class="st0" d="M368.1,382H112.7V205.7h255.4V382z"/>
		<path id="Stroke-41_1_" sketch:type="MSShapeGroup" class="st1" d="M368.1,382H112.7V205.7h255.4V382z"/>
		<path id="Stroke-43_1_" sketch:type="MSShapeGroup" class="st1" d="M368.1,205.7H112.7V29.4h255.4V205.7z"/>
		<path id="Fill-44_1_" sketch:type="MSShapeGroup" class="st2" d="M346.4,259.2H241v-13.7h105.3V259.2z"/>
		<path id="Fill-45_1_" sketch:type="MSShapeGroup" class="st2" d="M346.4,284.6H241v-13.7h105.3V284.6z"/>
		<path id="Fill-46_1_" sketch:type="MSShapeGroup" class="st2" d="M346.4,310H241v-13.7h105.3V310z"/>
		<path id="Fill-47_1_" sketch:type="MSShapeGroup" class="st2" d="M293.7,335.4H241v-13.7h52.7V335.4z"/>
		<path id="Fill-47_2_" sketch:type="MSShapeGroup" class="st2" d="M346.4,335.4H306v-13.7h40.4V335.4z"/>
		<path id="Fill-51_1_" sketch:type="MSShapeGroup" class="st2" d="M204.8,269.7c0,13.6-11.1,24.7-24.7,24.7
			c-13.6,0-24.7-11.1-24.7-24.7c0-13.6,11.1-24.7,24.7-24.7C193.7,245,204.8,256,204.8,269.7"/>
		<path id="Fill-52_1_" sketch:type="MSShapeGroup" class="st2" d="M221.5,335.4h-82.7v-23.9c0,0,16.7-7.6,41.3-7.6
			c24.7,0,41.4,7.6,41.4,7.6V335.4z"/>
	</g>
</g>
<polygon class="st3" points="232,266.3 232,137.4 218,137.4 218,266.3 204,266.3 225,302.6 245.9,266.3 "/>
</svg>
