<?xml version="1.0" encoding="utf-8"?>
<!-- Generator: Adobe Illustrator 23.0.0, SVG Export Plug-In . SVG Version: 6.00 Build 0)  -->
<svg version="1.1" id="Layer_1" xmlns="http://www.w3.org/2000/svg" xmlns:xlink="http://www.w3.org/1999/xlink" x="0px" y="0px"
	 viewBox="0 0 332.2 192.2" style="enable-background:new 0 0 332.2 192.2;" xml:space="preserve">
<style type="text/css">
	.st0{fill:#FFFFFF;stroke:#000000;stroke-width:0.25;stroke-miterlimit:10;}
	.st1{font-family:'Elmhurst-Bold';}
	.st2{font-size:8px;}
	.st3{font-family:'OCRBStd';}
	.st4{font-family:'Elmhurst-Regular';}
	.st5{font-size:6px;}
	.st6{fill:#4D4D4D;}
	.st7{font-family:'OmnesCond-Regular';}
	.st8{font-size:5px;}
	.st9{font-family:'SignPainter-HouseScript';}
	.st10{fill:#FFFFFF;stroke:#28A197;stroke-width:4;stroke-miterlimit:10;}
	.st11{fill:none;stroke:#28A197;stroke-width:2;stroke-miterlimit:10;}
	.st12{font-size:8.37px;}
	.st13{font-size:11px;}
	.st14{fill:#666666;}
</style>
<title>Asset 8</title>
<g>
	<g id="Icon">
		<path class="st0" d="M8.9,0.1h283.2c4.9,0,8.8,3.9,8.8,8.8v167.2c0,4.9-3.9,8.8-8.8,8.8H8.9c-4.9,0-8.8-3.9-8.8-8.8V8.9
			C0.1,4.1,4.1,0.1,8.9,0.1z"/>
		<text transform="matrix(1 0 0 1 16.32 13.95)" class="st1 st2">UNIT</text>
		<text transform="matrix(1 0 0 1 37.46 13.95)" class="st1 st2">E</text>
		<text transform="matrix(1 0 0 1 42.89 13.95)" class="st1 st2">D KING</text>
		<text transform="matrix(1 0 0 1 72.97 13.95)" class="st1 st2">D</text>
		<text transform="matrix(1 0 0 1 79.66 13.95)" class="st1 st2">O</text>
		<text transform="matrix(1 0 0 1 85.74 13.95)" class="st1 st2">M OF G</text>
		<text transform="matrix(1 0 0 1 114.39 13.95)" class="st1 st2">R</text>
		<text transform="matrix(1 0 0 1 120.17 13.95)" class="st1 st2">E</text>
		<text transform="matrix(1 0 0 1 125.7 13.95)" class="st1 st2">A</text>
		<text transform="matrix(1 0 0 1 131.28 13.95)" class="st1 st2">T </text>
		<text transform="matrix(1 0 0 1 138.74 13.95)" class="st1 st2">B</text>
		<text transform="matrix(1 0 0 1 144.33 13.95)" class="st1 st2">RI</text>
		<text transform="matrix(1 0 0 1 153.38 13.95)" class="st1 st2">T</text>
		<text transform="matrix(1 0 0 1 158.54 13.95)" class="st1 st2">AIN AND NO</text>
		<text transform="matrix(1 0 0 1 209.29 13.95)" class="st1 st2">R</text>
		<text transform="matrix(1 0 0 1 214.89 13.95)" class="st1 st2">THERN I</text>
		<text transform="matrix(1 0 0 1 249.91 13.95)" class="st1 st2">R</text>
		<text transform="matrix(1 0 0 1 255.69 13.95)" class="st1 st2">E</text>
		<text transform="matrix(1 0 0 1 261.14 13.95)" class="st1 st2">L</text>
		<text transform="matrix(1 0 0 1 266.56 13.95)" class="st1 st2">AND</text>
		<text transform="matrix(1 0 0 1 7.46 166.82)" class="st3 st2">P&lt;GBRUK&lt;SPECIMEN&lt;&lt;ANGELA&lt;ZOE&lt;&lt;&lt;&lt;&lt;&lt;&lt;&lt;&lt;&lt;&lt;&lt;&lt;&lt;&lt;&lt;&lt;&lt;</text>
		<text transform="matrix(1 0 0 1 7.46 176.42)" class="st3 st2">5333800068GBR8812049F2509286&lt;&lt;&lt;&lt;&lt;&lt;&lt;&lt;&lt;&lt;&lt;&lt;&lt;&lt;&lt;&lt;04</text>
		<text transform="matrix(1 0 0 1 28.76 29.07)" class="st4 st5">P</text>
		<text transform="matrix(1 0 0 1 32.11 29.07)" class="st4 st5">A</text>
		<text transform="matrix(1 0 0 1 36.57 29.07)" class="st4 st5">SS</text>
		<text transform="matrix(1 0 0 1 43.15 29.07)" class="st4 st5">P</text>
		<text transform="matrix(1 0 0 1 46.96 29.07)" class="st4 st5">O</text>
		<text transform="matrix(1 0 0 1 51.42 29.07)" class="st4 st5">R</text>
		<text transform="matrix(1 0 0 1 55.5 29.07)" class="st4 st5">T</text>
		<text transform="matrix(1 0 0 1 26.69 36.27)" class="st4 st5">P</text>
		<text transform="matrix(1 0 0 1 30.05 36.27)" class="st4 st5">A</text>
		<text transform="matrix(1 0 0 1 34.5 36.27)" class="st4 st5">SSE</text>
		<text transform="matrix(1 0 0 1 45.21 36.27)" class="st4 st5">P</text>
		<text transform="matrix(1 0 0 1 49.02 36.27)" class="st4 st5">O</text>
		<text transform="matrix(1 0 0 1 53.49 36.27)" class="st4 st5">R</text>
		<text transform="matrix(1 0 0 1 57.56 36.27)" class="st4 st5">T</text>
		<text transform="matrix(1 0 0 1 86.4 27.08)" class="st6 st7 st8">T</text>
		<text transform="matrix(1 0 0 1 88.55 27.08)" class="st6 st7 st8">yp</text>
		<text transform="matrix(1 0 0 1 93.19 27.08)" class="st6 st7 st8">e</text>
		<text transform="matrix(1 0 0 1 95.49 27.08)" class="st6 st7 st8">/</text>
		<text transform="matrix(1 0 0 1 96.9 27.08)" class="st6 st7 st8">T</text>
		<text transform="matrix(1 0 0 1 99.05 27.08)" class="st6 st7 st8">ype</text>
		<text transform="matrix(1 0 0 1 86.4 34.87)" class="st3 st2">P</text>
		<text transform="matrix(1 0 0 1 153.72 27.08)" class="st6 st7 st8">Cod</text>
		<text transform="matrix(1 0 0 1 161.51 27.08)" class="st6 st7 st8">e</text>
		<text transform="matrix(1 0 0 1 163.8 27.08)" class="st6 st7 st8">/</text>
		<text transform="matrix(1 0 0 1 165.14 27.08)" class="st6 st7 st8">Code</text>
		<text transform="matrix(1 0 0 1 153.72 35.45)" class="st3 st2">GBR</text>
		<text transform="matrix(1 0 0 1 207.22 27.08)" class="st6 st7 st8">P</text>
		<text transform="matrix(1 0 0 1 209.69 27.08)" class="st6 st7 st8">asspo</text>
		<text transform="matrix(1 0 0 1 220.95 27.08)" class="st6 st7 st8">r</text>
		<text transform="matrix(1 0 0 1 222.53 27.08)" class="st6 st7 st8">t </text>
		<text transform="matrix(1 0 0 1 224.83 27.08)" class="st6 st7 st8">N</text>
		<text transform="matrix(1 0 0 1 227.83 27.08)" class="st6 st7 st8">o</text>
		<text transform="matrix(1 0 0 1 230.31 27.08)" class="st6 st7 st8">/</text>
		<text transform="matrix(1 0 0 1 231.74 27.08)" class="st6 st7 st8">P</text>
		<text transform="matrix(1 0 0 1 234.21 27.08)" class="st6 st7 st8">assepo</text>
		<text transform="matrix(1 0 0 1 247.79 27.08)" class="st6 st7 st8">r</text>
		<text transform="matrix(1 0 0 1 249.37 27.08)" class="st6 st7 st8">t </text>
		<text transform="matrix(1 0 0 1 251.67 27.08)" class="st6 st7 st8">N</text>
		<text transform="matrix(1 0 0 1 254.68 27.08)" class="st6 st7 st8">o</text>
		<text transform="matrix(1 0 0 1 207.22 35.45)" class="st3 st2">5333380006</text>
		<text transform="matrix(1 0 0 1 86.4 43.2)" class="st6 st7 st8">S</text>
		<text transform="matrix(1 0 0 1 88.74 43.2)" class="st6 st7 st8">urnam</text>
		<text transform="matrix(1 0 0 1 101.32 43.2)" class="st6 st7 st8">e</text>
		<text transform="matrix(1 0 0 1 103.61 43.2)" class="st6 st7 st8">/</text>
		<text transform="matrix(1 0 0 1 105.04 43.2)" class="st6 st7 st8">N</text>
		<text transform="matrix(1 0 0 1 108.05 43.2)" class="st6 st7 st8">om (1)</text>
		<text transform="matrix(1 0 0 1 86.4 50.99)" class="st3 st2">UK SPECIMEN</text>
		<text transform="matrix(1 0 0 1 86.4 75.44)" class="st6 st7 st8">N</text>
		<text transform="matrix(1 0 0 1 89.42 75.44)" class="st6 st7 st8">a</text>
		<text transform="matrix(1 0 0 1 91.71 75.44)" class="st6 st7 st8">tiona</text>
		<text transform="matrix(1 0 0 1 101.51 75.44)" class="st6 st7 st8">l</text>
		<text transform="matrix(1 0 0 1 102.57 75.44)" class="st6 st7 st8">it</text>
		<text transform="matrix(1 0 0 1 105.16 75.44)" class="st6 st7 st8">y</text>
		<text transform="matrix(1 0 0 1 107.18 75.44)" class="st6 st7 st8">/N</text>
		<text transform="matrix(1 0 0 1 111.63 75.44)" class="st6 st7 st8">a</text>
		<text transform="matrix(1 0 0 1 113.92 75.44)" class="st6 st7 st8">tiona</text>
		<text transform="matrix(1 0 0 1 123.73 75.44)" class="st6 st7 st8">l</text>
		<text transform="matrix(1 0 0 1 124.79 75.44)" class="st6 st7 st8">i</text>
		<text transform="matrix(1 0 0 1 125.84 75.44)" class="st6 st7 st8">t</text>
		<text transform="matrix(1 0 0 1 127.36 75.44)" class="st6 st7 st8">e (</text>
		<text transform="matrix(1 0 0 1 132.11 75.44)" class="st6 st7 st8">3</text>
		<text transform="matrix(1 0 0 1 134.38 75.44)" class="st6 st7 st8">)</text>
		<text transform="matrix(1 0 0 1 86.4 83.23)" class="st3 st2">BRITISH CITIZEN</text>
		<text transform="matrix(1 0 0 1 86.4 91.56)" class="st6 st7 st8">D</text>
		<text transform="matrix(1 0 0 1 89.34 91.56)" class="st6 st7 st8">at</text>
		<text transform="matrix(1 0 0 1 93.14 91.56)" class="st6 st7 st8">e </text>
		<text transform="matrix(1 0 0 1 96.23 91.56)" class="st6 st7 st8">o</text>
		<text transform="matrix(1 0 0 1 98.67 91.56)" class="st6 st7 st8">f</text>
		<text transform="matrix(1 0 0 1 99.95 91.56)" class="st6 st7 st8"> bi</text>
		<text transform="matrix(1 0 0 1 104.29 91.56)" class="st6 st7 st8">r</text>
		<text transform="matrix(1 0 0 1 105.87 91.56)" class="st6 st7 st8">th/D</text>
		<text transform="matrix(1 0 0 1 114.23 91.56)" class="st6 st7 st8">at</text>
		<text transform="matrix(1 0 0 1 118.03 91.56)" class="st6 st7 st8">e de naissance </text>
		<text transform="matrix(1 0 0 1 146.6 91.56)" class="st6 st7 st8">(</text>
		<text transform="matrix(1 0 0 1 147.99 91.56)" class="st6 st7 st8">4</text>
		<text transform="matrix(1 0 0 1 150.41 91.56)" class="st6 st7 st8">)</text>
		<text transform="matrix(1 0 0 1 86.4 99.35)" class="st3 st2">04 DEC /DEC 88</text>
		<text transform="matrix(1 0 0 1 86.4 59.32)" class="st6 st7 st8">Given name</text>
		<text transform="matrix(1 0 0 1 109.04 59.32)" class="st6 st7 st8">s</text>
		<text transform="matrix(1 0 0 1 111.07 59.32)" class="st6 st7 st8">/P</text>
		<text transform="matrix(1 0 0 1 114.99 59.32)" class="st6 st7 st8">r</text>
		<text transform="matrix(1 0 0 1 116.46 59.32)" class="st6 st7 st8">enoms (2)</text>
		<text transform="matrix(1 0 0 1 86.4 67.11)" class="st3 st2">ANGELA ZOE</text>
		<text transform="matrix(1 0 0 1 86.4 107.68)" class="st6 st7 st8">S</text>
		<text transform="matrix(1 0 0 1 88.78 107.68)" class="st6 st7 st8">e</text>
		<text transform="matrix(1 0 0 1 91.05 107.68)" class="st6 st7 st8">x/S</text>
		<text transform="matrix(1 0 0 1 96.94 107.68)" class="st6 st7 st8">e</text>
		<text transform="matrix(1 0 0 1 99.22 107.68)" class="st6 st7 st8">x</text>
		<text transform="matrix(1 0 0 1 101.27 107.68)" class="st6 st7 st8">e (5)</text>
		<text transform="matrix(1 0 0 1 86.4 115.46)" class="st3 st2">F</text>
		<text transform="matrix(1 0 0 1 126.91 107.67)" class="st6 st7 st8">P</text>
		<text transform="matrix(1 0 0 1 129.4 107.67)" class="st6 st7 st8">l</text>
		<text transform="matrix(1 0 0 1 130.42 107.67)" class="st6 st7 st8">ace </text>
		<text transform="matrix(1 0 0 1 138.02 107.67)" class="st6 st7 st8">o</text>
		<text transform="matrix(1 0 0 1 140.46 107.67)" class="st6 st7 st8">f</text>
		<text transform="matrix(1 0 0 1 141.75 107.67)" class="st6 st7 st8"> bi</text>
		<text transform="matrix(1 0 0 1 146.08 107.67)" class="st6 st7 st8">r</text>
		<text transform="matrix(1 0 0 1 147.66 107.67)" class="st6 st7 st8">th/Li</text>
		<text transform="matrix(1 0 0 1 156.37 107.67)" class="st6 st7 st8">e</text>
		<text transform="matrix(1 0 0 1 158.68 107.67)" class="st6 st7 st8">u</text>
		<text transform="matrix(1 0 0 1 161.08 107.67)" class="st6 st7 st8"> de naissance </text>
		<text transform="matrix(1 0 0 1 187.32 107.67)" class="st6 st7 st8">(</text>
		<text transform="matrix(1 0 0 1 188.87 107.67)" class="st6 st7 st8">6</text>
		<text transform="matrix(1 0 0 1 191.41 107.67)" class="st6 st7 st8">)</text>
		<text transform="matrix(1 0 0 1 126.91 115.94)" class="st3 st2">CROYDON</text>
		<text transform="matrix(1 0 0 1 86.4 123.79)" class="st6 st7 st8">D</text>
		<text transform="matrix(1 0 0 1 89.34 123.79)" class="st6 st7 st8">at</text>
		<text transform="matrix(1 0 0 1 93.14 123.79)" class="st6 st7 st8">e </text>
		<text transform="matrix(1 0 0 1 96.23 123.79)" class="st6 st7 st8">o</text>
		<text transform="matrix(1 0 0 1 98.67 123.79)" class="st6 st7 st8">f</text>
		<text transform="matrix(1 0 0 1 99.95 123.79)" class="st6 st7 st8"> is</text>
		<text transform="matrix(1 0 0 1 103.76 123.79)" class="st6 st7 st8">su</text>
		<text transform="matrix(1 0 0 1 108.15 123.79)" class="st6 st7 st8">e</text>
		<text transform="matrix(1 0 0 1 110.44 123.79)" class="st6 st7 st8">/D</text>
		<text transform="matrix(1 0 0 1 114.81 123.79)" class="st6 st7 st8">at</text>
		<text transform="matrix(1 0 0 1 118.61 123.79)" class="st6 st7 st8">e de de</text>
		<text transform="matrix(1 0 0 1 132.17 123.79)" class="st6 st7 st8">l</text>
		<text transform="matrix(1 0 0 1 133.23 123.79)" class="st6 st7 st8">ive</text>
		<text transform="matrix(1 0 0 1 138.72 123.79)" class="st6 st7 st8">r</text>
		<text transform="matrix(1 0 0 1 140.23 123.79)" class="st6 st7 st8">ance (7)</text>
		<text transform="matrix(1 0 0 1 86.4 131.58)" class="st3 st2">28 SEP /SEPT 08</text>
		<text transform="matrix(1 0 0 1 179.53 123.79)" class="st6 st7 st8">A</text>
		<text transform="matrix(1 0 0 1 182.16 123.79)" class="st6 st7 st8">uthorit</text>
		<text transform="matrix(1 0 0 1 195.23 123.79)" class="st6 st7 st8">y</text>
		<text transform="matrix(1 0 0 1 197.25 123.79)" class="st6 st7 st8">/</text>
		<text transform="matrix(1 0 0 1 198.6 123.79)" class="st6 st7 st8">A</text>
		<text transform="matrix(1 0 0 1 201.23 123.79)" class="st6 st7 st8">u</text>
		<text transform="matrix(1 0 0 1 203.68 123.79)" class="st6 st7 st8">t</text>
		<text transform="matrix(1 0 0 1 205.2 123.79)" class="st6 st7 st8">ori</text>
		<text transform="matrix(1 0 0 1 210.28 123.79)" class="st6 st7 st8">t</text>
		<text transform="matrix(1 0 0 1 211.8 123.79)" class="st6 st7 st8">e </text>
		<text transform="matrix(1 0 0 1 214.89 123.79)" class="st6 st7 st8">(8</text>
		<text transform="matrix(1 0 0 1 218.95 123.79)" class="st6 st7 st8">)</text>
		<text transform="matrix(1 0 0 1 179.53 131.26)" class="st3 st2">HMPO</text>
		<text transform="matrix(1 0 0 1 86.4 139.91)" class="st6 st7 st8">D</text>
		<text transform="matrix(1 0 0 1 89.34 139.91)" class="st6 st7 st8">at</text>
		<text transform="matrix(1 0 0 1 93.14 139.91)" class="st6 st7 st8">e </text>
		<text transform="matrix(1 0 0 1 96.23 139.91)" class="st6 st7 st8">o</text>
		<text transform="matrix(1 0 0 1 98.67 139.91)" class="st6 st7 st8">f</text>
		<text transform="matrix(1 0 0 1 99.95 139.91)" class="st6 st7 st8"> </text>
		<text transform="matrix(1 0 0 1 100.72 139.91)" class="st6 st7 st8">e</text>
		<text transform="matrix(1 0 0 1 102.99 139.91)" class="st6 st7 st8">xpir</text>
		<text transform="matrix(1 0 0 1 110.22 139.91)" class="st6 st7 st8">y</text>
		<text transform="matrix(1 0 0 1 112.25 139.91)" class="st6 st7 st8">/D</text>
		<text transform="matrix(1 0 0 1 116.61 139.91)" class="st6 st7 st8">at</text>
		<text transform="matrix(1 0 0 1 120.42 139.91)" class="st6 st7 st8">e d</text>
		<text transform="matrix(1 0 0 1 126.03 139.91)" class="st6 st7 st8">’</text>
		<text transform="matrix(1 0 0 1 126.85 139.91)" class="st6 st7 st8">e</text>
		<text transform="matrix(1 0 0 1 129.12 139.91)" class="st6 st7 st8">xpi</text>
		<text transform="matrix(1 0 0 1 134.78 139.91)" class="st6 st7 st8">r</text>
		<text transform="matrix(1 0 0 1 136.29 139.91)" class="st6 st7 st8">a</text>
		<text transform="matrix(1 0 0 1 138.58 139.91)" class="st6 st7 st8">tion </text>
		<text transform="matrix(1 0 0 1 146.85 139.91)" class="st6 st7 st8">(</text>
		<text transform="matrix(1 0 0 1 148.5 139.91)" class="st6 st7 st8">9</text>
		<text transform="matrix(1 0 0 1 150.94 139.91)" class="st6 st7 st8">)</text>
		<text transform="matrix(1 0 0 1 86.4 147.7)" class="st3 st2">28 SEP /SEPT 18</text>
		<text transform="matrix(1 0 0 1 184.2 139.91)" class="st6 st7 st8">H</text>
		<text transform="matrix(1 0 0 1 187.18 139.91)" class="st6 st7 st8">olde</text>
		<text transform="matrix(1 0 0 1 195.53 139.91)" class="st6 st7 st8">r</text>
		<text transform="matrix(1 0 0 1 197.11 139.91)" class="st6 st7 st8">’</text>
		<text transform="matrix(1 0 0 1 197.96 139.91)" class="st6 st7 st8">s sign</text>
		<text transform="matrix(1 0 0 1 208.27 139.91)" class="st6 st7 st8">a</text>
		<text transform="matrix(1 0 0 1 210.56 139.91)" class="st6 st7 st8">t</text>
		<text transform="matrix(1 0 0 1 212.01 139.91)" class="st6 st7 st8">u</text>
		<text transform="matrix(1 0 0 1 214.46 139.91)" class="st6 st7 st8">r</text>
		<text transform="matrix(1 0 0 1 215.94 139.91)" class="st6 st7 st8">e</text>
		<text transform="matrix(1 0 0 1 218.23 139.91)" class="st6 st7 st8">/Sign</text>
		<text transform="matrix(1 0 0 1 227.61 139.91)" class="st6 st7 st8">a</text>
		<text transform="matrix(1 0 0 1 229.89 139.91)" class="st6 st7 st8">t</text>
		<text transform="matrix(1 0 0 1 231.34 139.91)" class="st6 st7 st8">u</text>
		<text transform="matrix(1 0 0 1 233.8 139.91)" class="st6 st7 st8">r</text>
		<text transform="matrix(1 0 0 1 235.27 139.91)" class="st6 st7 st8">e d</text>
		<text transform="matrix(1 0 0 1 240.89 139.91)" class="st6 st7 st8">u</text>
		<text transform="matrix(1 0 0 1 243.29 139.91)" class="st6 st7 st8"> </text>
		<text transform="matrix(1 0 0 1 244.02 139.91)" class="st6 st7 st8">ti</text>
		<text transform="matrix(1 0 0 1 246.61 139.91)" class="st6 st7 st8">t</text>
		<text transform="matrix(1 0 0 1 248.06 139.91)" class="st6 st7 st8">u</text>
		<text transform="matrix(1 0 0 1 250.51 139.91)" class="st6 st7 st8">l</text>
		<text transform="matrix(1 0 0 1 251.54 139.91)" class="st6 st7 st8">ai</text>
		<text transform="matrix(1 0 0 1 254.89 139.91)" class="st6 st7 st8">r</text>
		<text transform="matrix(1 0 0 1 256.36 139.91)" class="st6 st7 st8">e (1</text>
		<text transform="matrix(1 0 0 1 262.73 139.91)" class="st6 st7 st8">0</text>
		<text transform="matrix(1 0 0 1 265.38 139.91)" class="st6 st7 st8">)</text>
		<text transform="matrix(1 0 0 1 196.36 146.97)" class="st9 st5">A </text>
		<text transform="matrix(1 0 0 1 201.53 146.97)" class="st9 st5">U</text>
		<text transform="matrix(1 0 0 1 204.66 146.97)" class="st9 st5">K </text>
		<text transform="matrix(1 0 0 1 209.57 146.97)" class="st9 st5">S</text>
		<text transform="matrix(1 0 0 1 212.7 146.97)" class="st9 st5">PE</text>
		<text transform="matrix(1 0 0 1 218.54 146.97)" class="st9 st5">C</text>
		<text transform="matrix(1 0 0 1 221.91 146.97)" class="st9 st5">I</text>
		<text transform="matrix(1 0 0 1 223.53 146.97)" class="st9 st5">M</text>
		<text transform="matrix(1 0 0 1 227.57 146.97)" class="st9 st5">E</text>
		<text transform="matrix(1 0 0 1 230.19 146.97)" class="st9 st5">N</text>
		<circle class="st10" cx="266.2" cy="126.2" r="64"/>
		<ellipse class="st11" cx="128.8" cy="126.3" rx="49.2" ry="15.5"/>
		<text transform="matrix(1 0 0 1 206.97 122.7)" class="st6 st7 st12">D</text>
		<text transform="matrix(1 0 0 1 211.88 122.7)" class="st6 st7 st12">at</text>
		<text transform="matrix(1 0 0 1 218.25 122.7)" class="st6 st7 st12">e </text>
		<text transform="matrix(1 0 0 1 223.42 122.7)" class="st6 st7 st12">o</text>
		<text transform="matrix(1 0 0 1 227.5 122.7)" class="st6 st7 st12">f</text>
		<text transform="matrix(1 0 0 1 229.66 122.7)" class="st6 st7 st12"> is</text>
		<text transform="matrix(1 0 0 1 236.03 122.7)" class="st6 st7 st12">s</text>
		<text transform="matrix(1 0 0 1 239.32 122.7)" class="st6 st7 st12">ue</text>
		<text transform="matrix(1 0 0 1 247.22 122.7)" class="st6 st7 st12">/D</text>
		<text transform="matrix(1 0 0 1 254.52 122.7)" class="st6 st7 st12">at</text>
		<text transform="matrix(1 0 0 1 260.89 122.7)" class="st6 st7 st12">e de de</text>
		<text transform="matrix(1 0 0 1 283.58 122.7)" class="st6 st7 st12">l</text>
		<text transform="matrix(1 0 0 1 285.35 122.7)" class="st6 st7 st12">i</text>
		<text transform="matrix(1 0 0 1 287.11 122.7)" class="st6 st7 st12">v</text>
		<text transform="matrix(1 0 0 1 290.66 122.7)" class="st6 st7 st12">e</text>
		<text transform="matrix(1 0 0 1 294.55 122.7)" class="st6 st7 st12">r</text>
		<text transform="matrix(1 0 0 1 297.08 122.7)" class="st6 st7 st12">ance </text>
		<text transform="matrix(1 0 0 1 313.92 122.7)" class="st6 st7 st12">(</text>
		<text transform="matrix(1 0 0 1 316.71 122.7)" class="st6 st7 st12">7)</text>
		<text transform="matrix(1 0 0 1 206.97 135.73)" class="st3 st13">28 SEP /SEPT 08</text>
		<line class="st11" x1="178" y1="125.8" x2="202.3" y2="126.2"/>
		<path class="st14" d="M58.1,91.4l-0.3,0.4c-6.1,7.6-17.1,8.8-24.7,2.8c-1-0.8-2-1.8-2.8-2.8L30,91.4c-9.9,4.5-16.2,14.4-16.3,25.2
			v7.2c0,2,1.6,3.7,3.7,3.7h53.3c2,0,3.7-1.6,3.7-3.7v-7.2C74.4,105.8,68,95.9,58.1,91.4z"/>
		<path class="st14" d="M44.1,95.2c4.2,0,8.1-1.9,10.9-5c3.4-3.8,5.2-8.7,5.1-13.8c0-10.4-7.2-18.8-16.1-18.8S28,66,28,76.4
			c-0.1,5.1,1.8,10,5.1,13.8C35.9,93.4,39.9,95.2,44.1,95.2z"/>
	</g>
</g>
</svg>
