<?xml version="1.0" encoding="utf-8"?>
<!-- Generator: Adobe Illustrator 21.1.0, SVG Export Plug-In . SVG Version: 6.00 Build 0)  -->
<svg version="1.1" id="Layer_1" xmlns="http://www.w3.org/2000/svg" xmlns:xlink="http://www.w3.org/1999/xlink" x="0px" y="0px"
	 viewBox="0 0 402 410" style="enable-background:new 0 0 402 410;" xml:space="preserve">
<style type="text/css">
	.st0{fill:none;stroke:#0A0B09;stroke-width:19.624;stroke-linecap:round;stroke-linejoin:round;}
	.st1{fill:#FFFFFF;}
	.st2{fill:none;stroke:#0B0B09;stroke-width:19.624;stroke-linecap:round;stroke-linejoin:round;}
	.st3{fill:#791C2C;}
	.st4{fill:#0A0B09;}
</style>
<g id="Layer_1_1_" xmlns:sketch="http://www.bohemiancoding.com/sketch/ns">
	<title>Group</title>
	<desc>Created with Sketch.</desc>
	<g id="Page-1" sketch:type="MSPage">
		<g id="Group" transform="translate(-101.000000, -19.000000)" sketch:type="MSLayerGroup">
			<g id="Group-38">
				<g id="Clip-37">
				</g>
				<path id="Stroke-36" sketch:type="MSShapeGroup" class="st0" d="M371.2,160.7l31.9-13.6l54.1,68.4l-19,87.1L503,439.3"/>
			</g>
			<path id="Fill-39" sketch:type="MSShapeGroup" class="st1" d="M367.1,382H110.7l1-176.3h191.7l30.6,96.8l33.1,28.9V382z"/>
			<path id="Stroke-41" sketch:type="MSShapeGroup" class="st2" d="M303.4,205.7H111.7V382h255.4v-50.6c-17-8.2-34.5-29.1-37.1-37.9
				C326.5,281.8,313.1,238.3,303.4,205.7z M347.7,205.7H367v40.6c-1.4-3.8-4.8-12.7-10.2-23.3C354.2,217.5,351,211.6,347.7,205.7z"
				/>
			<path id="Fill-42" sketch:type="MSShapeGroup" class="st3" d="M348.3,205.7h18.8V29.4H111.7v176.3h194.2
				c-5.7-19.4-10-34.5-9.8-35.9c2.6-19.1,29.4-13.8,38.6,7C337.8,184.2,342.9,194.8,348.3,205.7z"/>
			<path id="Stroke-43" sketch:type="MSShapeGroup" class="st2" d="M348.3,205.7h18.8V29.4H111.7v176.3h191.2
				c-5.7-19.4-10-34.5-9.8-35.9c1.2-8.7,7.4-12.4,14.7-11.8c9.2-0.8,21.3,6.1,26.8,18.7C337.8,184.2,342.9,194.8,348.3,205.7z"/>
			<path id="Fill-44" sketch:type="MSShapeGroup" class="st4" d="M322.7,259.2H240v-13.7h82.7V259.2z"/>
			<path id="Fill-45" sketch:type="MSShapeGroup" class="st4" d="M322.7,284.6H240v-13.7h82.7V284.6z"/>
			<path id="Fill-46" sketch:type="MSShapeGroup" class="st4" d="M333,310h-93v-13.7h93V310z"/>
			<path id="Fill-47" sketch:type="MSShapeGroup" class="st4" d="M292.7,335.4H240v-13.7h52.7V335.4z"/>
		</g>
	</g>
</g>
<g id="Layer_2">
</g>
</svg>
