<?xml version="1.0" encoding="utf-8"?>
<!-- Generator: Adobe Illustrator 16.2.1, SVG Export Plug-In . SVG Version: 6.00 Build 0)  -->
<!DOCTYPE svg PUBLIC "-//W3C//DTD SVG 1.1//EN" "http://www.w3.org/Graphics/SVG/1.1/DTD/svg11.dtd">
<svg version="1.1" xmlns="http://www.w3.org/2000/svg" xmlns:xlink="http://www.w3.org/1999/xlink" x="0px" y="0px" width="402px"
	 height="410px" viewBox="0 0 402 410" enable-background="new 0 0 402 410" xml:space="preserve">
<g id="Layer_1" xmlns:sketch="http://www.bohemiancoding.com/sketch/ns">
	<title>Group</title>
	<desc>Created with Sketch.</desc>
	<g id="Page-1" sketch:type="MSPage">
		<g id="Group" transform="translate(-101.000000, -19.000000)" sketch:type="MSLayerGroup">
			<g id="Group-38">
				<g id="Clip-37">
				</g>
				<defs>
					<filter id="Adobe_OpacityMaskFilter" filterUnits="userSpaceOnUse" x="361.354" y="137.327" width="151.458" height="311.772">
						<feColorMatrix  type="matrix" values="1 0 0 0 0  0 1 0 0 0  0 0 1 0 0  0 0 0 1 0"/>
					</filter>
				</defs>
				<mask maskUnits="userSpaceOnUse" x="361.354" y="137.327" width="151.458" height="311.772" id="mask-2">
					<g filter="url(#Adobe_OpacityMaskFilter)">
						<path id="path-1" fill="#FFFFFF" d="M0.907,429H503V0.151H0.907"/>
					</g>
				</mask>
				
					<path id="Stroke-36" sketch:type="MSShapeGroup" mask="url(#mask-2)" fill="none" stroke="#0A0B09" stroke-width="19.624" stroke-linecap="round" stroke-linejoin="round" d="
					M371.165,160.7l31.881-13.561l54.12,68.385l-19.031,87.12L503,439.288"/>
			</g>
			<path id="Fill-39" sketch:type="MSShapeGroup" fill="#FFFFFF" d="M367.062,381.98h-256.39l1-176.272h191.745L334,302.5
				l33.062,28.861V381.98z"/>
			
				<path id="Stroke-41" sketch:type="MSShapeGroup" fill="none" stroke="#0B0B09" stroke-width="19.624" stroke-linecap="round" stroke-linejoin="round" d="
				M303.418,205.708H111.673V381.98h255.39v-50.619c-17.049-8.208-34.52-29.129-37.135-37.929
				C326.47,281.78,313.08,238.291,303.418,205.708z M347.745,205.708h19.317v40.561c-1.408-3.848-4.845-12.726-10.152-23.265
				C354.152,217.529,350.963,211.607,347.745,205.708z"/>
			<path id="Fill-42" sketch:type="MSShapeGroup" fill="#791C2C" d="M348.287,205.708h18.775V29.435h-255.39v176.273h194.152
				c-5.736-19.387-10.01-34.479-9.819-35.874c2.61-19.135,29.423-13.809,38.552,6.961
				C337.803,184.17,342.914,194.807,348.287,205.708z"/>
			
				<path id="Stroke-43" sketch:type="MSShapeGroup" fill="none" stroke="#0B0B09" stroke-width="19.624" stroke-linecap="round" stroke-linejoin="round" d="
				M348.287,205.708h18.775V29.435h-255.39v176.273h191.152c-5.736-19.387-10.01-34.479-9.819-35.874
				c1.191-8.734,7.425-12.372,14.718-11.771c9.209-0.808,21.286,6.111,26.834,18.732
				C337.803,184.17,342.914,194.807,348.287,205.708z"/>
			<path id="Fill-44" sketch:type="MSShapeGroup" fill="#0A0B09" d="M322.734,259.249h-82.702v-13.738h82.702V259.249z"/>
			<path id="Fill-45" sketch:type="MSShapeGroup" fill="#0A0B09" d="M322.734,284.623h-82.702v-13.736h82.702V284.623z"/>
			<path id="Fill-46" sketch:type="MSShapeGroup" fill="#0A0B09" d="M333.037,309.997h-93.005v-13.736h93.005V309.997z"/>
			<path id="Fill-47" sketch:type="MSShapeGroup" fill="#0A0B09" d="M292.697,335.368h-52.665v-13.733h52.665V335.368z"/>
			<path id="Fill-51" sketch:type="MSShapeGroup" fill="#0A0B09" d="M203.8,269.664c0,13.637-11.055,24.691-24.698,24.691
				c-13.64,0-24.694-11.055-24.694-24.691c0-13.643,11.054-24.698,24.694-24.698C192.745,244.966,203.8,256.021,203.8,269.664"/>
			<path id="Fill-52" sketch:type="MSShapeGroup" fill="#0A0B09" d="M220.457,335.368h-82.702v-23.937
				c0,0,16.653-7.625,41.347-7.625c24.698,0,41.355,7.625,41.355,7.625V335.368z"/>
		</g>
	</g>
</g>
<g id="Layer_2">
</g>
</svg>
